<svg width="1097" height="64" viewBox="0 0 1097 64" fill="none" xmlns="http://www.w3.org/2000/svg">
<mask id="path-1-outside-1_2568_70926" maskUnits="userSpaceOnUse" x="-0.400391" y="-0.5" width="1097" height="64" fill="black">
<rect fill="white" x="-0.400391" y="-0.5" width="1097" height="64"/>
<path d="M20.5296 23.59H28.0096V2H46.5396V61.5H28.0096V38.465H20.5296V61.5H1.99961V2H20.5296V23.59ZM76.0784 34.64H81.5184L79.8184 16.96H77.7784L76.0784 34.64ZM63.3284 2H94.2684L102.598 54.105V61.5H83.9834L82.8784 49.515H74.7184L73.5284 61.5H54.9984V54.105L63.3284 2ZM115.95 41.44C111.615 41.44 108.555 38.295 108.555 33.96V2H127.085V26.565H134.565V2H153.095V61.5H134.565V41.44H115.95ZM182.654 34.64H188.094L186.394 16.96H184.354L182.654 34.64ZM169.904 2H200.844L209.174 54.105V61.5H190.559L189.454 49.515H181.294L180.104 61.5H161.574V54.105L169.904 2ZM222.822 16.96H211.687V2H253.337V9.395L250.362 16.96H241.437V61.5H222.822V16.96ZM279.582 46.625H286.977V35.49H279.582V46.625ZM298.197 20.615C302.532 20.615 305.592 23.675 305.592 28.01V54.02C305.592 58.355 302.532 61.5 298.197 61.5H260.967V2H279.582V20.615H298.197ZM389.144 46.625V16.875H386.509L381.919 46.625H389.144ZM357.439 61.5V46.625H362.964L372.059 2H407.759V46.625H412.689V61.5H357.439ZM460.112 61.5H420.332V2H460.112V9.395L457.137 16.96H438.862V23.59H457.137V38.465H438.862V46.625H460.112V61.5ZM487.17 23.59H494.65V2H513.18V61.5H494.65V38.465H487.17V61.5H468.64V2H487.17V23.59ZM541.953 46.625H549.348V35.49H541.953V46.625ZM560.568 20.615C564.903 20.615 567.963 23.675 567.963 28.01V54.02C567.963 58.355 564.903 61.5 560.568 61.5H523.338V2H541.953V20.615H560.568ZM629.84 2H662.14V9.395L659.25 16.96H640.975V46.625H662.14V61.5H629.84C625.42 61.5 622.36 58.44 622.36 54.105V9.395C622.36 5.06 625.42 2 629.84 2ZM696.677 16.96H689.282V46.625H696.677V16.96ZM707.812 61.5H678.147C673.727 61.5 670.667 58.44 670.667 54.105V9.395C670.667 5.06 673.727 2 678.147 2H707.812C712.232 2 715.292 5.06 715.292 9.395V54.105C715.292 58.44 712.232 61.5 707.812 61.5ZM789.217 38.465V46.625H796.612V38.465H789.217ZM796.612 23.59V16.96H789.217V23.59H796.612ZM807.747 61.5H770.602V2H807.747C812.167 2 815.227 5.06 815.227 9.395V23.08C815.227 27.415 811.657 30.22 807.577 30.22V31.835C811.657 31.835 815.227 34.64 815.227 39.06V54.105C815.227 58.44 812.167 61.5 807.747 61.5ZM846.484 23.59L850.989 2H868.584V9.395L861.699 29.965L870.029 54.105V61.5H851.499L846.484 38.465H843.169V61.5H824.554V2H843.169V23.59H846.484ZM905.366 61.5H888.961V54.105L891.341 47.39L875.956 9.395V2H893.806L898.566 25.29H900.606L904.176 2H921.431V9.395L905.366 61.5ZM936.534 2H968.834V9.395L965.944 16.96H947.669V46.625H968.834V61.5H936.534C932.114 61.5 929.054 58.44 929.054 54.105V9.395C929.054 5.06 932.114 2 936.534 2ZM1003.37 16.96H995.976V46.625H1003.37V16.96ZM1014.51 61.5H984.841C980.421 61.5 977.361 58.44 977.361 54.105V9.395C977.361 5.06 980.421 2 984.841 2H1014.51C1018.93 2 1021.99 5.06 1021.99 9.395V54.105C1021.99 58.44 1018.93 61.5 1014.51 61.5ZM1054.75 61.5L1050.16 32.94H1048.72V61.5H1030.53V54.105L1036.65 2H1057.39L1061.89 25.46H1063.17L1067.67 2H1088.5L1094.53 54.105V61.5H1076.43V32.94H1074.9L1070.31 61.5H1054.75Z"/>
</mask>
<path d="M20.5296 23.59H18.5296V25.59H20.5296V23.59ZM28.0096 23.59V25.59H30.0096V23.59H28.0096ZM28.0096 2V-3.8147e-06H26.0096V2H28.0096ZM46.5396 2H48.5396V-3.8147e-06H46.5396V2ZM46.5396 61.5V63.5H48.5396V61.5H46.5396ZM28.0096 61.5H26.0096V63.5H28.0096V61.5ZM28.0096 38.465H30.0096V36.465H28.0096V38.465ZM20.5296 38.465V36.465H18.5296V38.465H20.5296ZM20.5296 61.5V63.5H22.5296V61.5H20.5296ZM1.99961 61.5H-0.00039041V63.5H1.99961V61.5ZM1.99961 2V-3.8147e-06H-0.00039041V2H1.99961ZM20.5296 2H22.5296V-3.8147e-06H20.5296V2ZM20.5296 23.59V25.59H28.0096V23.59V21.59H20.5296V23.59ZM28.0096 23.59H30.0096V2H28.0096H26.0096V23.59H28.0096ZM28.0096 2V4H46.5396V2V-3.8147e-06H28.0096V2ZM46.5396 2H44.5396V61.5H46.5396H48.5396V2H46.5396ZM46.5396 61.5V59.5H28.0096V61.5V63.5H46.5396V61.5ZM28.0096 61.5H30.0096V38.465H28.0096H26.0096V61.5H28.0096ZM28.0096 38.465V36.465H20.5296V38.465V40.465H28.0096V38.465ZM20.5296 38.465H18.5296V61.5H20.5296H22.5296V38.465H20.5296ZM20.5296 61.5V59.5H1.99961V61.5V63.5H20.5296V61.5ZM1.99961 61.5H3.99961V2H1.99961H-0.00039041V61.5H1.99961ZM1.99961 2V4H20.5296V2V-3.8147e-06H1.99961V2ZM20.5296 2H18.5296V23.59H20.5296H22.5296V2H20.5296ZM76.0784 34.64L74.0876 34.4486L73.8769 36.64H76.0784V34.64ZM81.5184 34.64V36.64H83.72L83.5093 34.4486L81.5184 34.64ZM79.8184 16.96L81.8093 16.7686L81.6354 14.96H79.8184V16.96ZM77.7784 16.96V14.96H75.9615L75.7876 16.7686L77.7784 16.96ZM63.3284 2V-3.8147e-06H61.6228L61.3535 1.68427L63.3284 2ZM94.2684 2L96.2434 1.68427L95.9741 -3.8147e-06H94.2684V2ZM102.598 54.105H104.598V53.9461L104.573 53.7893L102.598 54.105ZM102.598 61.5V63.5H104.598V61.5H102.598ZM83.9834 61.5L81.9919 61.6836L82.1594 63.5H83.9834V61.5ZM82.8784 49.515L84.87 49.3314L84.7025 47.515H82.8784V49.515ZM74.7184 49.515V47.515H72.9072L72.7282 49.3174L74.7184 49.515ZM73.5284 61.5V63.5H75.3397L75.5187 61.6976L73.5284 61.5ZM54.9984 61.5H52.9984V63.5H54.9984V61.5ZM54.9984 54.105L53.0235 53.7893L52.9984 53.9461V54.105H54.9984ZM76.0784 34.64V36.64H81.5184V34.64V32.64H76.0784V34.64ZM81.5184 34.64L83.5093 34.4486L81.8093 16.7686L79.8184 16.96L77.8276 17.1514L79.5276 34.8314L81.5184 34.64ZM79.8184 16.96V14.96H77.7784V16.96V18.96H79.8184V16.96ZM77.7784 16.96L75.7876 16.7686L74.0876 34.4486L76.0784 34.64L78.0693 34.8314L79.7693 17.1514L77.7784 16.96ZM63.3284 2V4H94.2684V2V-3.8147e-06H63.3284V2ZM94.2684 2L92.2935 2.31573L100.624 54.4207L102.598 54.105L104.573 53.7893L96.2434 1.68427L94.2684 2ZM102.598 54.105H100.598V61.5H102.598H104.598V54.105H102.598ZM102.598 61.5V59.5H83.9834V61.5V63.5H102.598V61.5ZM83.9834 61.5L85.975 61.3164L84.87 49.3314L82.8784 49.515L80.8869 49.6986L81.9919 61.6836L83.9834 61.5ZM82.8784 49.515V47.515H74.7184V49.515V51.515H82.8784V49.515ZM74.7184 49.515L72.7282 49.3174L71.5382 61.3024L73.5284 61.5L75.5187 61.6976L76.7086 49.7126L74.7184 49.515ZM73.5284 61.5V59.5H54.9984V61.5V63.5H73.5284V61.5ZM54.9984 61.5H56.9984V54.105H54.9984H52.9984V61.5H54.9984ZM54.9984 54.105L56.9734 54.4207L65.3034 2.31573L63.3284 2L61.3535 1.68427L53.0235 53.7893L54.9984 54.105ZM108.555 2V-3.8147e-06H106.555V2H108.555ZM127.085 2H129.085V-3.8147e-06H127.085V2ZM127.085 26.565H125.085V28.565H127.085V26.565ZM134.565 26.565V28.565H136.565V26.565H134.565ZM134.565 2V-3.8147e-06H132.565V2H134.565ZM153.095 2H155.095V-3.8147e-06H153.095V2ZM153.095 61.5V63.5H155.095V61.5H153.095ZM134.565 61.5H132.565V63.5H134.565V61.5ZM134.565 41.44H136.565V39.44H134.565V41.44ZM115.95 41.44V39.44C112.75 39.44 110.555 37.221 110.555 33.96H108.555H106.555C106.555 39.369 110.48 43.44 115.95 43.44V41.44ZM108.555 33.96H110.555V2H108.555H106.555V33.96H108.555ZM108.555 2V4H127.085V2V-3.8147e-06H108.555V2ZM127.085 2H125.085V26.565H127.085H129.085V2H127.085ZM127.085 26.565V28.565H134.565V26.565V24.565H127.085V26.565ZM134.565 26.565H136.565V2H134.565H132.565V26.565H134.565ZM134.565 2V4H153.095V2V-3.8147e-06H134.565V2ZM153.095 2H151.095V61.5H153.095H155.095V2H153.095ZM153.095 61.5V59.5H134.565V61.5V63.5H153.095V61.5ZM134.565 61.5H136.565V41.44H134.565H132.565V61.5H134.565ZM134.565 41.44V39.44H115.95V41.44V43.44H134.565V41.44ZM182.654 34.64L180.663 34.4486L180.452 36.64H182.654V34.64ZM188.094 34.64V36.64H190.295L190.085 34.4486L188.094 34.64ZM186.394 16.96L188.385 16.7686L188.211 14.96H186.394V16.96ZM184.354 16.96V14.96H182.537L182.363 16.7686L184.354 16.96ZM169.904 2V-3.8147e-06H168.198L167.929 1.68427L169.904 2ZM200.844 2L202.819 1.68427L202.549 -3.8147e-06H200.844V2ZM209.174 54.105H211.174V53.9461L211.149 53.7893L209.174 54.105ZM209.174 61.5V63.5H211.174V61.5H209.174ZM190.559 61.5L188.567 61.6836L188.735 63.5H190.559V61.5ZM189.454 49.515L191.445 49.3314L191.278 47.515H189.454V49.515ZM181.294 49.515V47.515H179.483L179.304 49.3174L181.294 49.515ZM180.104 61.5V63.5H181.915L182.094 61.6976L180.104 61.5ZM161.574 61.5H159.574V63.5H161.574V61.5ZM161.574 54.105L159.599 53.7893L159.574 53.9461V54.105H161.574ZM182.654 34.64V36.64H188.094V34.64V32.64H182.654V34.64ZM188.094 34.64L190.085 34.4486L188.385 16.7686L186.394 16.96L184.403 17.1514L186.103 34.8314L188.094 34.64ZM186.394 16.96V14.96H184.354V16.96V18.96H186.394V16.96ZM184.354 16.96L182.363 16.7686L180.663 34.4486L182.654 34.64L184.645 34.8314L186.345 17.1514L184.354 16.96ZM169.904 2V4H200.844V2V-3.8147e-06H169.904V2ZM200.844 2L198.869 2.31573L207.199 54.4207L209.174 54.105L211.149 53.7893L202.819 1.68427L200.844 2ZM209.174 54.105H207.174V61.5H209.174H211.174V54.105H209.174ZM209.174 61.5V59.5H190.559V61.5V63.5H209.174V61.5ZM190.559 61.5L192.55 61.3164L191.445 49.3314L189.454 49.515L187.462 49.6986L188.567 61.6836L190.559 61.5ZM189.454 49.515V47.515H181.294V49.515V51.515H189.454V49.515ZM181.294 49.515L179.304 49.3174L178.114 61.3024L180.104 61.5L182.094 61.6976L183.284 49.7126L181.294 49.515ZM180.104 61.5V59.5H161.574V61.5V63.5H180.104V61.5ZM161.574 61.5H163.574V54.105H161.574H159.574V61.5H161.574ZM161.574 54.105L163.549 54.4207L171.879 2.31573L169.904 2L167.929 1.68427L159.599 53.7893L161.574 54.105ZM222.822 16.96H224.822V14.96H222.822V16.96ZM211.687 16.96H209.687V18.96H211.687V16.96ZM211.687 2V-3.8147e-06H209.687V2H211.687ZM253.337 2H255.337V-3.8147e-06H253.337V2ZM253.337 9.395L255.199 10.1269L255.337 9.77412V9.395H253.337ZM250.362 16.96V18.96H251.725L252.224 17.6919L250.362 16.96ZM241.437 16.96V14.96H239.437V16.96H241.437ZM241.437 61.5V63.5H243.437V61.5H241.437ZM222.822 61.5H220.822V63.5H222.822V61.5ZM222.822 16.96V14.96H211.687V16.96V18.96H222.822V16.96ZM211.687 16.96H213.687V2H211.687H209.687V16.96H211.687ZM211.687 2V4H253.337V2V-3.8147e-06H211.687V2ZM253.337 2H251.337V9.395H253.337H255.337V2H253.337ZM253.337 9.395L251.476 8.66304L248.501 16.228L250.362 16.96L252.224 17.6919L255.199 10.1269L253.337 9.395ZM250.362 16.96V14.96H241.437V16.96V18.96H250.362V16.96ZM241.437 16.96H239.437V61.5H241.437H243.437V16.96H241.437ZM241.437 61.5V59.5H222.822V61.5V63.5H241.437V61.5ZM222.822 61.5H224.822V16.96H222.822H220.822V61.5H222.822ZM279.582 46.625H277.582V48.625H279.582V46.625ZM286.977 46.625V48.625H288.977V46.625H286.977ZM286.977 35.49H288.977V33.49H286.977V35.49ZM279.582 35.49V33.49H277.582V35.49H279.582ZM260.967 61.5H258.967V63.5H260.967V61.5ZM260.967 2V-3.8147e-06H258.967V2H260.967ZM279.582 2H281.582V-3.8147e-06H279.582V2ZM279.582 20.615H277.582V22.615H279.582V20.615ZM279.582 46.625V48.625H286.977V46.625V44.625H279.582V46.625ZM286.977 46.625H288.977V35.49H286.977H284.977V46.625H286.977ZM286.977 35.49V33.49H279.582V35.49V37.49H286.977V35.49ZM279.582 35.49H277.582V46.625H279.582H281.582V35.49H279.582ZM298.197 20.615V22.615C299.882 22.615 301.207 23.2014 302.106 24.1011C303.006 25.0008 303.592 26.3258 303.592 28.01H305.592H307.592C307.592 25.3592 306.649 22.9867 304.935 21.2727C303.221 19.5586 300.848 18.615 298.197 18.615V20.615ZM305.592 28.01H303.592V54.02H305.592H307.592V28.01H305.592ZM305.592 54.02H303.592C303.592 57.281 301.398 59.5 298.197 59.5V61.5V63.5C303.667 63.5 307.592 59.429 307.592 54.02H305.592ZM298.197 61.5V59.5H260.967V61.5V63.5H298.197V61.5ZM260.967 61.5H262.967V2H260.967H258.967V61.5H260.967ZM260.967 2V4H279.582V2V-3.8147e-06H260.967V2ZM279.582 2H277.582V20.615H279.582H281.582V2H279.582ZM279.582 20.615V22.615H298.197V20.615V18.615H279.582V20.615ZM389.144 46.625V48.625H391.144V46.625H389.144ZM389.144 16.875H391.144V14.875H389.144V16.875ZM386.509 16.875V14.875H384.794L384.532 16.57L386.509 16.875ZM381.919 46.625L379.942 46.32L379.587 48.625H381.919V46.625ZM357.439 61.5H355.439V63.5H357.439V61.5ZM357.439 46.625V44.625H355.439V46.625H357.439ZM362.964 46.625V48.625H364.598L364.924 47.0244L362.964 46.625ZM372.059 2V-3.8147e-06H370.426L370.099 1.60059L372.059 2ZM407.759 2H409.759V-3.8147e-06H407.759V2ZM407.759 46.625H405.759V48.625H407.759V46.625ZM412.689 46.625H414.689V44.625H412.689V46.625ZM412.689 61.5V63.5H414.689V61.5H412.689ZM389.144 46.625H391.144V16.875H389.144H387.144V46.625H389.144ZM389.144 16.875V14.875H386.509V16.875V18.875H389.144V16.875ZM386.509 16.875L384.532 16.57L379.942 46.32L381.919 46.625L383.896 46.93L388.486 17.18L386.509 16.875ZM381.919 46.625V48.625H389.144V46.625V44.625H381.919V46.625ZM357.439 61.5H359.439V46.625H357.439H355.439V61.5H357.439ZM357.439 46.625V48.625H362.964V46.625V44.625H357.439V46.625ZM362.964 46.625L364.924 47.0244L374.019 2.3994L372.059 2L370.099 1.60059L361.004 46.2256L362.964 46.625ZM372.059 2V4H407.759V2V-3.8147e-06H372.059V2ZM407.759 2H405.759V46.625H407.759H409.759V2H407.759ZM407.759 46.625V48.625H412.689V46.625V44.625H407.759V46.625ZM412.689 46.625H410.689V61.5H412.689H414.689V46.625H412.689ZM412.689 61.5V59.5H357.439V61.5V63.5H412.689V61.5ZM460.112 61.5V63.5H462.112V61.5H460.112ZM420.332 61.5H418.332V63.5H420.332V61.5ZM420.332 2V-3.8147e-06H418.332V2H420.332ZM460.112 2H462.112V-3.8147e-06H460.112V2ZM460.112 9.395L461.974 10.1269L462.112 9.77412V9.395H460.112ZM457.137 16.96V18.96H458.5L458.999 17.6919L457.137 16.96ZM438.862 16.96V14.96H436.862V16.96H438.862ZM438.862 23.59H436.862V25.59H438.862V23.59ZM457.137 23.59H459.137V21.59H457.137V23.59ZM457.137 38.465V40.465H459.137V38.465H457.137ZM438.862 38.465V36.465H436.862V38.465H438.862ZM438.862 46.625H436.862V48.625H438.862V46.625ZM460.112 46.625H462.112V44.625H460.112V46.625ZM460.112 61.5V59.5H420.332V61.5V63.5H460.112V61.5ZM420.332 61.5H422.332V2H420.332H418.332V61.5H420.332ZM420.332 2V4H460.112V2V-3.8147e-06H420.332V2ZM460.112 2H458.112V9.395H460.112H462.112V2H460.112ZM460.112 9.395L458.251 8.66304L455.276 16.228L457.137 16.96L458.999 17.6919L461.974 10.1269L460.112 9.395ZM457.137 16.96V14.96H438.862V16.96V18.96H457.137V16.96ZM438.862 16.96H436.862V23.59H438.862H440.862V16.96H438.862ZM438.862 23.59V25.59H457.137V23.59V21.59H438.862V23.59ZM457.137 23.59H455.137V38.465H457.137H459.137V23.59H457.137ZM457.137 38.465V36.465H438.862V38.465V40.465H457.137V38.465ZM438.862 38.465H436.862V46.625H438.862H440.862V38.465H438.862ZM438.862 46.625V48.625H460.112V46.625V44.625H438.862V46.625ZM460.112 46.625H458.112V61.5H460.112H462.112V46.625H460.112ZM487.17 23.59H485.17V25.59H487.17V23.59ZM494.65 23.59V25.59H496.65V23.59H494.65ZM494.65 2V-3.8147e-06H492.65V2H494.65ZM513.18 2H515.18V-3.8147e-06H513.18V2ZM513.18 61.5V63.5H515.18V61.5H513.18ZM494.65 61.5H492.65V63.5H494.65V61.5ZM494.65 38.465H496.65V36.465H494.65V38.465ZM487.17 38.465V36.465H485.17V38.465H487.17ZM487.17 61.5V63.5H489.17V61.5H487.17ZM468.64 61.5H466.64V63.5H468.64V61.5ZM468.64 2V-3.8147e-06H466.64V2H468.64ZM487.17 2H489.17V-3.8147e-06H487.17V2ZM487.17 23.59V25.59H494.65V23.59V21.59H487.17V23.59ZM494.65 23.59H496.65V2H494.65H492.65V23.59H494.65ZM494.65 2V4H513.18V2V-3.8147e-06H494.65V2ZM513.18 2H511.18V61.5H513.18H515.18V2H513.18ZM513.18 61.5V59.5H494.65V61.5V63.5H513.18V61.5ZM494.65 61.5H496.65V38.465H494.65H492.65V61.5H494.65ZM494.65 38.465V36.465H487.17V38.465V40.465H494.65V38.465ZM487.17 38.465H485.17V61.5H487.17H489.17V38.465H487.17ZM487.17 61.5V59.5H468.64V61.5V63.5H487.17V61.5ZM468.64 61.5H470.64V2H468.64H466.64V61.5H468.64ZM468.64 2V4H487.17V2V-3.8147e-06H468.64V2ZM487.17 2H485.17V23.59H487.17H489.17V2H487.17ZM541.953 46.625H539.953V48.625H541.953V46.625ZM549.348 46.625V48.625H551.348V46.625H549.348ZM549.348 35.49H551.348V33.49H549.348V35.49ZM541.953 35.49V33.49H539.953V35.49H541.953ZM523.339 61.5H521.339V63.5H523.339V61.5ZM523.339 2V-3.8147e-06H521.339V2H523.339ZM541.953 2H543.953V-3.8147e-06H541.953V2ZM541.953 20.615H539.953V22.615H541.953V20.615ZM541.953 46.625V48.625H549.348V46.625V44.625H541.953V46.625ZM549.348 46.625H551.348V35.49H549.348H547.348V46.625H549.348ZM549.348 35.49V33.49H541.953V35.49V37.49H549.348V35.49ZM541.953 35.49H539.953V46.625H541.953H543.953V35.49H541.953ZM560.568 20.615V22.615C562.253 22.615 563.578 23.2014 564.477 24.1011C565.377 25.0008 565.964 26.3258 565.964 28.01H567.964H569.964C569.964 25.3592 569.02 22.9867 567.306 21.2727C565.592 19.5586 563.219 18.615 560.568 18.615V20.615ZM567.964 28.01H565.964V54.02H567.964H569.964V28.01H567.964ZM567.964 54.02H565.964C565.964 57.281 563.769 59.5 560.568 59.5V61.5V63.5C566.038 63.5 569.964 59.429 569.964 54.02H567.964ZM560.568 61.5V59.5H523.339V61.5V63.5H560.568V61.5ZM523.339 61.5H525.339V2H523.339H521.339V61.5H523.339ZM523.339 2V4H541.953V2V-3.8147e-06H523.339V2ZM541.953 2H539.953V20.615H541.953H543.953V2H541.953ZM541.953 20.615V22.615H560.568V20.615V18.615H541.953V20.615ZM662.14 2H664.14V-3.8147e-06H662.14V2ZM662.14 9.395L664.008 10.1087L664.14 9.76402V9.395H662.14ZM659.25 16.96V18.96H660.627L661.118 17.6737L659.25 16.96ZM640.975 16.96V14.96H638.975V16.96H640.975ZM640.975 46.625H638.975V48.625H640.975V46.625ZM662.14 46.625H664.14V44.625H662.14V46.625ZM662.14 61.5V63.5H664.14V61.5H662.14ZM629.84 2V4H662.14V2V-3.8147e-06H629.84V2ZM662.14 2H660.14V9.395H662.14H664.14V2H662.14ZM662.14 9.395L660.272 8.68126L657.382 16.2463L659.25 16.96L661.118 17.6737L664.008 10.1087L662.14 9.395ZM659.25 16.96V14.96H640.975V16.96V18.96H659.25V16.96ZM640.975 16.96H638.975V46.625H640.975H642.975V16.96H640.975ZM640.975 46.625V48.625H662.14V46.625V44.625H640.975V46.625ZM662.14 46.625H660.14V61.5H662.14H664.14V46.625H662.14ZM662.14 61.5V59.5H629.84V61.5V63.5H662.14V61.5ZM629.84 61.5V59.5C628.103 59.5 626.757 58.9067 625.851 58.0082C624.946 57.1103 624.36 55.7887 624.36 54.105H622.36H620.36C620.36 56.7563 621.304 59.1322 623.034 60.8481C624.763 62.5633 627.157 63.5 629.84 63.5V61.5ZM622.36 54.105H624.36V9.395H622.36H620.36V54.105H622.36ZM622.36 9.395H624.36C624.36 7.71131 624.946 6.38971 625.851 5.4918C626.757 4.59325 628.103 4 629.84 4V2V-3.8147e-06C627.157 -3.8147e-06 624.763 0.936737 623.034 2.65194C621.304 4.36778 620.36 6.74369 620.36 9.395H622.36ZM696.677 16.96H698.677V14.96H696.677V16.96ZM689.282 16.96V14.96H687.282V16.96H689.282ZM689.282 46.625H687.282V48.625H689.282V46.625ZM696.677 46.625V48.625H698.677V46.625H696.677ZM696.677 16.96V14.96H689.282V16.96V18.96H696.677V16.96ZM689.282 16.96H687.282V46.625H689.282H691.282V16.96H689.282ZM689.282 46.625V48.625H696.677V46.625V44.625H689.282V46.625ZM696.677 46.625H698.677V16.96H696.677H694.677V46.625H696.677ZM707.812 61.5V59.5H678.147V61.5V63.5H707.812V61.5ZM678.147 61.5V59.5C676.41 59.5 675.064 58.9067 674.158 58.0082C673.253 57.1103 672.667 55.7887 672.667 54.105H670.667H668.667C668.667 56.7563 669.612 59.1322 671.341 60.8481C673.071 62.5633 675.464 63.5 678.147 63.5V61.5ZM670.667 54.105H672.667V9.395H670.667H668.667V54.105H670.667ZM670.667 9.395H672.667C672.667 7.71131 673.253 6.38971 674.158 5.4918C675.064 4.59325 676.41 4 678.147 4V2V-3.8147e-06C675.464 -3.8147e-06 673.071 0.936737 671.341 2.65194C669.612 4.36778 668.667 6.74369 668.667 9.395H670.667ZM678.147 2V4H707.812V2V-3.8147e-06H678.147V2ZM707.812 2V4C709.549 4 710.896 4.59325 711.801 5.4918C712.707 6.38971 713.292 7.71131 713.292 9.395H715.292H717.292C717.292 6.74369 716.348 4.36778 714.618 2.65194C712.889 0.936737 710.495 -3.8147e-06 707.812 -3.8147e-06V2ZM715.292 9.395H713.292V54.105H715.292H717.292V9.395H715.292ZM715.292 54.105H713.292C713.292 55.7887 712.707 57.1103 711.801 58.0082C710.896 58.9067 709.549 59.5 707.812 59.5V61.5V63.5C710.495 63.5 712.889 62.5633 714.618 60.8481C716.348 59.1322 717.292 56.7563 717.292 54.105H715.292ZM789.217 38.465V36.465H787.217V38.465H789.217ZM789.217 46.625H787.217V48.625H789.217V46.625ZM796.612 46.625V48.625H798.612V46.625H796.612ZM796.612 38.465H798.612V36.465H796.612V38.465ZM796.612 23.59V25.59H798.612V23.59H796.612ZM796.612 16.96H798.612V14.96H796.612V16.96ZM789.217 16.96V14.96H787.217V16.96H789.217ZM789.217 23.59H787.217V25.59H789.217V23.59ZM770.602 61.5H768.602V63.5H770.602V61.5ZM770.602 2V-3.8147e-06H768.602V2H770.602ZM807.577 30.22V28.22H805.577V30.22H807.577ZM807.577 31.835H805.577V33.835H807.577V31.835ZM789.217 38.465H787.217V46.625H789.217H791.217V38.465H789.217ZM789.217 46.625V48.625H796.612V46.625V44.625H789.217V46.625ZM796.612 46.625H798.612V38.465H796.612H794.612V46.625H796.612ZM796.612 38.465V36.465H789.217V38.465V40.465H796.612V38.465ZM796.612 23.59H798.612V16.96H796.612H794.612V23.59H796.612ZM796.612 16.96V14.96H789.217V16.96V18.96H796.612V16.96ZM789.217 16.96H787.217V23.59H789.217H791.217V16.96H789.217ZM789.217 23.59V25.59H796.612V23.59V21.59H789.217V23.59ZM807.747 61.5V59.5H770.602V61.5V63.5H807.747V61.5ZM770.602 61.5H772.602V2H770.602H768.602V61.5H770.602ZM770.602 2V4H807.747V2V-3.8147e-06H770.602V2ZM807.747 2V4C809.484 4 810.83 4.59325 811.736 5.4918C812.641 6.38971 813.227 7.71131 813.227 9.395H815.227H817.227C817.227 6.74369 816.283 4.36778 814.553 2.65194C812.824 0.936737 810.43 -3.8147e-06 807.747 -3.8147e-06V2ZM815.227 9.395H813.227V23.08H815.227H817.227V9.395H815.227ZM815.227 23.08H813.227C813.227 26.0905 810.786 28.22 807.577 28.22V30.22V32.22C812.528 32.22 817.227 28.7395 817.227 23.08H815.227ZM807.577 30.22H805.577V31.835H807.577H809.577V30.22H807.577ZM807.577 31.835V33.835C810.769 33.835 813.227 35.9495 813.227 39.06H815.227H817.227C817.227 33.3305 812.545 29.835 807.577 29.835V31.835ZM815.227 39.06H813.227V54.105H815.227H817.227V39.06H815.227ZM815.227 54.105H813.227C813.227 55.7887 812.641 57.1103 811.736 58.0082C810.83 58.9067 809.484 59.5 807.747 59.5V61.5V63.5C810.43 63.5 812.824 62.5633 814.553 60.8481C816.283 59.1322 817.227 56.7563 817.227 54.105H815.227ZM846.484 23.59V25.59H848.11L848.442 23.9985L846.484 23.59ZM850.989 2V-3.8147e-06H849.363L849.031 1.59147L850.989 2ZM868.584 2H870.584V-3.8147e-06H868.584V2ZM868.584 9.395L870.481 10.0298L870.584 9.72083V9.395H868.584ZM861.699 29.965L859.802 29.3302L859.587 29.9748L859.808 30.6174L861.699 29.965ZM870.029 54.105H872.029V53.7696L871.92 53.4526L870.029 54.105ZM870.029 61.5V63.5H872.029V61.5H870.029ZM851.499 61.5L849.545 61.9255L849.888 63.5H851.499V61.5ZM846.484 38.465L848.438 38.0395L848.095 36.465H846.484V38.465ZM843.169 38.465V36.465H841.169V38.465H843.169ZM843.169 61.5V63.5H845.169V61.5H843.169ZM824.554 61.5H822.554V63.5H824.554V61.5ZM824.554 2V-3.8147e-06H822.554V2H824.554ZM843.169 2H845.169V-3.8147e-06H843.169V2ZM843.169 23.59H841.169V25.59H843.169V23.59ZM846.484 23.59L848.442 23.9985L852.947 2.40852L850.989 2L849.031 1.59147L844.526 23.1815L846.484 23.59ZM850.989 2V4H868.584V2V-3.8147e-06H850.989V2ZM868.584 2H866.584V9.395H868.584H870.584V2H868.584ZM868.584 9.395L866.687 8.76019L859.802 29.3302L861.699 29.965L863.596 30.5998L870.481 10.0298L868.584 9.395ZM861.699 29.965L859.808 30.6174L868.138 54.7574L870.029 54.105L871.92 53.4526L863.59 29.3126L861.699 29.965ZM870.029 54.105H868.029V61.5H870.029H872.029V54.105H870.029ZM870.029 61.5V59.5H851.499V61.5V63.5H870.029V61.5ZM851.499 61.5L853.453 61.0745L848.438 38.0395L846.484 38.465L844.53 38.8905L849.545 61.9255L851.499 61.5ZM846.484 38.465V36.465H843.169V38.465V40.465H846.484V38.465ZM843.169 38.465H841.169V61.5H843.169H845.169V38.465H843.169ZM843.169 61.5V59.5H824.554V61.5V63.5H843.169V61.5ZM824.554 61.5H826.554V2H824.554H822.554V61.5H824.554ZM824.554 2V4H843.169V2V-3.8147e-06H824.554V2ZM843.169 2H841.169V23.59H843.169H845.169V2H843.169ZM843.169 23.59V25.59H846.484V23.59V21.59H843.169V23.59ZM905.366 61.5V63.5H906.842L907.277 62.0893L905.366 61.5ZM888.961 61.5H886.961V63.5H888.961V61.5ZM888.961 54.105L887.076 53.4369L886.961 53.7611V54.105H888.961ZM891.341 47.39L893.226 48.0581L893.479 47.3428L893.194 46.6394L891.341 47.39ZM875.956 9.395H873.956V9.78456L874.102 10.1456L875.956 9.395ZM875.956 2V-3.8147e-06H873.956V2H875.956ZM893.806 2L895.765 1.59951L895.438 -3.8147e-06H893.806V2ZM898.566 25.29L896.606 25.6905L896.933 27.29H898.566V25.29ZM900.606 25.29V27.29H902.322L902.583 25.593L900.606 25.29ZM904.176 2V-3.8147e-06H902.459L902.199 1.69696L904.176 2ZM921.431 2H923.431V-3.8147e-06H921.431V2ZM921.431 9.395L923.342 9.98426L923.431 9.69632V9.395H921.431ZM905.366 61.5V59.5H888.961V61.5V63.5H905.366V61.5ZM888.961 61.5H890.961V54.105H888.961H886.961V61.5H888.961ZM888.961 54.105L890.846 54.7731L893.226 48.0581L891.341 47.39L889.456 46.7219L887.076 53.4369L888.961 54.105ZM891.341 47.39L893.194 46.6394L877.809 8.64436L875.956 9.395L874.102 10.1456L889.487 48.1406L891.341 47.39ZM875.956 9.395H877.956V2H875.956H873.956V9.395H875.956ZM875.956 2V4H893.806V2V-3.8147e-06H875.956V2ZM893.806 2L891.846 2.40047L896.606 25.6905L898.566 25.29L900.525 24.8895L895.765 1.59951L893.806 2ZM898.566 25.29V27.29H900.606V25.29V23.29H898.566V25.29ZM900.606 25.29L902.583 25.593L906.153 2.30302L904.176 2L902.199 1.69696L898.629 24.987L900.606 25.29ZM904.176 2V4H921.431V2V-3.8147e-06H904.176V2ZM921.431 2H919.431V9.395H921.431H923.431V2H921.431ZM921.431 9.395L919.519 8.80573L903.454 60.9107L905.366 61.5L907.277 62.0893L923.342 9.98426L921.431 9.395ZM968.834 2H970.834V-3.8147e-06H968.834V2ZM968.834 9.395L970.702 10.1087L970.834 9.76402V9.395H968.834ZM965.944 16.96V18.96H967.321L967.812 17.6737L965.944 16.96ZM947.669 16.96V14.96H945.669V16.96H947.669ZM947.669 46.625H945.669V48.625H947.669V46.625ZM968.834 46.625H970.834V44.625H968.834V46.625ZM968.834 61.5V63.5H970.834V61.5H968.834ZM936.534 2V4H968.834V2V-3.8147e-06H936.534V2ZM968.834 2H966.834V9.395H968.834H970.834V2H968.834ZM968.834 9.395L966.966 8.68126L964.076 16.2463L965.944 16.96L967.812 17.6737L970.702 10.1087L968.834 9.395ZM965.944 16.96V14.96H947.669V16.96V18.96H965.944V16.96ZM947.669 16.96H945.669V46.625H947.669H949.669V16.96H947.669ZM947.669 46.625V48.625H968.834V46.625V44.625H947.669V46.625ZM968.834 46.625H966.834V61.5H968.834H970.834V46.625H968.834ZM968.834 61.5V59.5H936.534V61.5V63.5H968.834V61.5ZM936.534 61.5V59.5C934.797 59.5 933.451 58.9067 932.545 58.0082C931.64 57.1103 931.054 55.7887 931.054 54.105H929.054H927.054C927.054 56.7563 927.998 59.1322 929.728 60.8481C931.457 62.5633 933.851 63.5 936.534 63.5V61.5ZM929.054 54.105H931.054V9.395H929.054H927.054V54.105H929.054ZM929.054 9.395H931.054C931.054 7.71131 931.64 6.38971 932.545 5.4918C933.451 4.59325 934.797 4 936.534 4V2V-3.8147e-06C933.851 -3.8147e-06 931.457 0.936737 929.728 2.65194C927.998 4.36778 927.054 6.74369 927.054 9.395H929.054ZM1003.37 16.96H1005.37V14.96H1003.37V16.96ZM995.976 16.96V14.96H993.976V16.96H995.976ZM995.976 46.625H993.976V48.625H995.976V46.625ZM1003.37 46.625V48.625H1005.37V46.625H1003.37ZM1003.37 16.96V14.96H995.976V16.96V18.96H1003.37V16.96ZM995.976 16.96H993.976V46.625H995.976H997.976V16.96H995.976ZM995.976 46.625V48.625H1003.37V46.625V44.625H995.976V46.625ZM1003.37 46.625H1005.37V16.96H1003.37H1001.37V46.625H1003.37ZM1014.51 61.5V59.5H984.841V61.5V63.5H1014.51V61.5ZM984.841 61.5V59.5C983.104 59.5 981.758 58.9067 980.852 58.0082C979.947 57.1103 979.361 55.7887 979.361 54.105H977.361H975.361C975.361 56.7563 976.306 59.1322 978.035 60.8481C979.764 62.5633 982.158 63.5 984.841 63.5V61.5ZM977.361 54.105H979.361V9.395H977.361H975.361V54.105H977.361ZM977.361 9.395H979.361C979.361 7.71131 979.947 6.38971 980.852 5.4918C981.758 4.59325 983.104 4 984.841 4V2V-3.8147e-06C982.158 -3.8147e-06 979.764 0.936737 978.035 2.65194C976.306 4.36778 975.361 6.74369 975.361 9.395H977.361ZM984.841 2V4H1014.51V2V-3.8147e-06H984.841V2ZM1014.51 2V4C1016.24 4 1017.59 4.59325 1018.5 5.4918C1019.4 6.38971 1019.99 7.71131 1019.99 9.395H1021.99H1023.99C1023.99 6.74369 1023.04 4.36778 1021.31 2.65194C1019.58 0.936737 1017.19 -3.8147e-06 1014.51 -3.8147e-06V2ZM1021.99 9.395H1019.99V54.105H1021.99H1023.99V9.395H1021.99ZM1021.99 54.105H1019.99C1019.99 55.7887 1019.4 57.1103 1018.5 58.0082C1017.59 58.9067 1016.24 59.5 1014.51 59.5V61.5V63.5C1017.19 63.5 1019.58 62.5633 1021.31 60.8481C1023.04 59.1322 1023.99 56.7563 1023.99 54.105H1021.99ZM1054.75 61.5L1052.78 61.8174L1053.05 63.5H1054.75V61.5ZM1050.16 32.94L1052.14 32.6226L1051.87 30.94H1050.16V32.94ZM1048.72 32.94V30.94H1046.72V32.94H1048.72ZM1048.72 61.5V63.5H1050.72V61.5H1048.72ZM1030.53 61.5H1028.53V63.5H1030.53V61.5ZM1030.53 54.105L1028.54 53.8717L1028.53 53.9879V54.105H1030.53ZM1036.65 2V-3.8147e-06H1034.87L1034.66 1.76669L1036.65 2ZM1057.39 2L1059.35 1.62283L1059.04 -3.8147e-06H1057.39V2ZM1061.89 25.46L1059.93 25.8372L1060.24 27.46H1061.89V25.46ZM1063.17 25.46V27.46H1064.82L1065.13 25.8372L1063.17 25.46ZM1067.67 2V-3.8147e-06H1066.02L1065.71 1.62283L1067.67 2ZM1088.5 2L1090.48 1.76989L1090.28 -3.8147e-06H1088.5V2ZM1094.53 54.105H1096.53V53.9896L1096.52 53.8749L1094.53 54.105ZM1094.53 61.5V63.5H1096.53V61.5H1094.53ZM1076.43 61.5H1074.43V63.5H1076.43V61.5ZM1076.43 32.94H1078.43V30.94H1076.43V32.94ZM1074.9 32.94V30.94H1073.19L1072.92 32.6226L1074.9 32.94ZM1070.31 61.5V63.5H1072.01L1072.28 61.8174L1070.31 61.5ZM1054.75 61.5L1056.73 61.1826L1052.14 32.6226L1050.16 32.94L1048.19 33.2574L1052.78 61.8174L1054.75 61.5ZM1050.16 32.94V30.94H1048.72V32.94V34.94H1050.16V32.94ZM1048.72 32.94H1046.72V61.5H1048.72H1050.72V32.94H1048.72ZM1048.72 61.5V59.5H1030.53V61.5V63.5H1048.72V61.5ZM1030.53 61.5H1032.53V54.105H1030.53H1028.53V61.5H1030.53ZM1030.53 54.105L1032.51 54.3383L1038.63 2.2333L1036.65 2L1034.66 1.76669L1028.54 53.8717L1030.53 54.105ZM1036.65 2V4H1057.39V2V-3.8147e-06H1036.65V2ZM1057.39 2L1055.42 2.37716L1059.93 25.8372L1061.89 25.46L1063.86 25.0828L1059.35 1.62283L1057.39 2ZM1061.89 25.46V27.46H1063.17V25.46V23.46H1061.89V25.46ZM1063.17 25.46L1065.13 25.8372L1069.64 2.37716L1067.67 2L1065.71 1.62283L1061.2 25.0828L1063.17 25.46ZM1067.67 2V4H1088.5V2V-3.8147e-06H1067.67V2ZM1088.5 2L1086.51 2.23011L1092.54 54.3351L1094.53 54.105L1096.52 53.8749L1090.48 1.76989L1088.5 2ZM1094.53 54.105H1092.53V61.5H1094.53H1096.53V54.105H1094.53ZM1094.53 61.5V59.5H1076.43V61.5V63.5H1094.53V61.5ZM1076.43 61.5H1078.43V32.94H1076.43H1074.43V61.5H1076.43ZM1076.43 32.94V30.94H1074.9V32.94V34.94H1076.43V32.94ZM1074.9 32.94L1072.92 32.6226L1068.33 61.1826L1070.31 61.5L1072.28 61.8174L1076.87 33.2574L1074.9 32.94ZM1070.31 61.5V59.5H1054.75V61.5V63.5H1070.31V61.5Z" fill="#737D3A" mask="url(#path-1-outside-1_2568_70926)"/>
</svg>
