<svg width="12" height="12" viewBox="0 0 12 12" fill="none" xmlns="http://www.w3.org/2000/svg">
<path d="M10.25 3.75C10.25 5.59187 8.73687 7.12812 6.75 7.44125V7.5C6.75 7.69891 6.67098 7.88968 6.53033 8.03033C6.38968 8.17098 6.19891 8.25 6 8.25C5.80109 8.25 5.61032 8.17098 5.46967 8.03033C5.32902 7.88968 5.25 7.69891 5.25 7.5V6.75C5.25 6.55109 5.32902 6.36032 5.46967 6.21967C5.61032 6.07902 5.80109 6 6 6C7.51625 6 8.75 4.99062 8.75 3.75C8.75 2.50937 7.51625 1.5 6 1.5C4.48375 1.5 3.25 2.50937 3.25 3.75C3.25 3.94891 3.17098 4.13968 3.03033 4.28033C2.88968 4.42098 2.69891 4.5 2.5 4.5C2.30109 4.5 2.11032 4.42098 1.96967 4.28033C1.82902 4.13968 1.75 3.94891 1.75 3.75C1.75 1.6825 3.65625 0 6 0C8.34375 0 10.25 1.6825 10.25 3.75ZM6 9.5C5.75277 9.5 5.5111 9.57331 5.30554 9.71066C5.09998 9.84801 4.93976 10.0432 4.84515 10.2716C4.75054 10.5001 4.72579 10.7514 4.77402 10.9939C4.82225 11.2363 4.9413 11.4591 5.11612 11.6339C5.29093 11.8087 5.51366 11.9277 5.75614 11.976C5.99861 12.0242 6.24995 11.9995 6.47835 11.9048C6.70676 11.8102 6.90198 11.65 7.03934 11.4445C7.17669 11.2389 7.25 10.9972 7.25 10.75C7.25 10.4185 7.1183 10.1005 6.88388 9.86612C6.64946 9.6317 6.33152 9.5 6 9.5Z" fill="#FFED00"/>
</svg>
