<svg preserveAspectRatio="none" width="1101" height="94" viewBox="-3 -3 1101 94" fill="none" xmlns="http://www.w3.org/2000/svg">
<style>.sl{stroke-width:2px}@media (max-width:600px){.sl{stroke-width:2px}}</style>
<mask id="path-1-outside-1_1912_18509" maskUnits="userSpaceOnUse" x="-3" y="-3" width="1101" height="94" fill="black">
<rect fill="white" x="-3" y="-3" width="1101" height="94"/>
<path d="M11.8241 1.00009H58.5641V11.7011L54.3821 22.6481H27.9371V65.5751H58.5641V87.1001H11.8241C5.42808 87.1001 1.00008 82.6721 1.00008 76.3991V11.7011C1.00008 5.42809 5.42808 1.00009 11.8241 1.00009ZM108.541 22.6481H97.8405V65.5751H108.541V22.6481ZM124.654 87.1001H81.7275C75.3315 87.1001 70.9035 82.6721 70.9035 76.3991V11.7011C70.9035 5.42809 75.3315 1.00009 81.7275 1.00009H124.654C131.05 1.00009 135.478 5.42809 135.478 11.7011V76.3991C135.478 82.6721 131.05 87.1001 124.654 87.1001ZM150.296 87.1001V1.00009H177.11V65.5751H204.17V87.1001H150.296ZM242.089 22.6481V65.5751H252.913V22.6481H242.089ZM269.026 87.1001H215.275V1.00009H269.026C275.299 1.00009 279.727 5.42809 279.727 11.7011V76.3991C279.727 82.6721 275.299 87.1001 269.026 87.1001ZM387.69 48.2321H395.562L393.102 22.6481H390.15L387.69 48.2321ZM369.24 1.00009H414.012L426.066 76.3991V87.1001H399.129L397.53 69.7571H385.722L384 87.1001H357.186V76.3991L369.24 1.00009ZM479.4 40.8521H481.614L478.047 11.7011V1.00009H502.893V87.1001H474.357L461.688 47.3711H459.597L463.041 76.3991V87.1001H438.318V1.00009H466.854L479.4 40.8521ZM544.525 22.6481V65.5751H555.349V22.6481H544.525ZM571.462 87.1001H517.711V1.00009H571.462C577.735 1.00009 582.163 5.42809 582.163 11.7011V76.3991C582.163 82.6721 577.735 87.1001 571.462 87.1001ZM688.896 32.2421H699.72V1.00009H726.534V87.1001H699.72V53.7671H688.896V87.1001H662.082V1.00009H688.896V32.2421ZM778.872 22.6481H768.171V65.5751H778.872V22.6481ZM794.985 87.1001H752.058C745.662 87.1001 741.234 82.6721 741.234 76.3991V11.7011C741.234 5.42809 745.662 1.00009 752.058 1.00009H794.985C801.381 1.00009 805.809 5.42809 805.809 11.7011V76.3991C805.809 82.6721 801.381 87.1001 794.985 87.1001ZM861.709 40.8521H863.923L860.356 11.7011V1.00009H885.202V87.1001H856.666L843.997 47.3711H841.906L845.35 76.3991V87.1001H820.627V1.00009H849.163L861.709 40.8521ZM957.584 87.1001H900.02V1.00009H957.584V11.7011L953.279 22.6481H926.834V32.2421H953.279V53.7671H926.834V65.5751H957.584V87.1001ZM974.72 44.4191C968.816 40.3601 967.463 36.6701 967.463 29.7821V11.7011C967.463 5.42809 971.891 1.00009 978.287 1.00009H1025.03V11.5781L1020.84 22.6481H994.4V26.5841L1017.77 42.2051C1023.67 46.1411 1025.03 49.9541 1025.03 56.8421V76.3991C1025.03 82.6721 1020.6 87.1001 1014.33 87.1001H967.463V65.5751H998.09V59.9171L974.72 44.4191ZM1049.73 22.6481H1033.61V1.00009H1093.88V11.7011L1089.58 22.6481H1076.66V87.1001H1049.73V22.6481Z"/>
</mask>
<path d="M11.8241 1.00009H58.5641V11.7011L54.3821 22.6481H27.9371V65.5751H58.5641V87.1001H11.8241C5.42808 87.1001 1.00008 82.6721 1.00008 76.3991V11.7011C1.00008 5.42809 5.42808 1.00009 11.8241 1.00009ZM108.541 22.6481H97.8405V65.5751H108.541V22.6481ZM124.654 87.1001H81.7275C75.3315 87.1001 70.9035 82.6721 70.9035 76.3991V11.7011C70.9035 5.42809 75.3315 1.00009 81.7275 1.00009H124.654C131.05 1.00009 135.478 5.42809 135.478 11.7011V76.3991C135.478 82.6721 131.05 87.1001 124.654 87.1001ZM150.296 87.1001V1.00009H177.11V65.5751H204.17V87.1001H150.296ZM242.089 22.6481V65.5751H252.913V22.6481H242.089ZM269.026 87.1001H215.275V1.00009H269.026C275.299 1.00009 279.727 5.42809 279.727 11.7011V76.3991C279.727 82.6721 275.299 87.1001 269.026 87.1001ZM387.69 48.2321H395.562L393.102 22.6481H390.15L387.69 48.2321ZM369.24 1.00009H414.012L426.066 76.3991V87.1001H399.129L397.53 69.7571H385.722L384 87.1001H357.186V76.3991L369.24 1.00009ZM479.4 40.8521H481.614L478.047 11.7011V1.00009H502.893V87.1001H474.357L461.688 47.3711H459.597L463.041 76.3991V87.1001H438.318V1.00009H466.854L479.4 40.8521ZM544.525 22.6481V65.5751H555.349V22.6481H544.525ZM571.462 87.1001H517.711V1.00009H571.462C577.735 1.00009 582.163 5.42809 582.163 11.7011V76.3991C582.163 82.6721 577.735 87.1001 571.462 87.1001ZM688.896 32.2421H699.72V1.00009H726.534V87.1001H699.72V53.7671H688.896V87.1001H662.082V1.00009H688.896V32.2421ZM778.872 22.6481H768.171V65.5751H778.872V22.6481ZM794.985 87.1001H752.058C745.662 87.1001 741.234 82.6721 741.234 76.3991V11.7011C741.234 5.42809 745.662 1.00009 752.058 1.00009H794.985C801.381 1.00009 805.809 5.42809 805.809 11.7011V76.3991C805.809 82.6721 801.381 87.1001 794.985 87.1001ZM861.709 40.8521H863.923L860.356 11.7011V1.00009H885.202V87.1001H856.666L843.997 47.3711H841.906L845.35 76.3991V87.1001H820.627V1.00009H849.163L861.709 40.8521ZM957.584 87.1001H900.02V1.00009H957.584V11.7011L953.279 22.6481H926.834V32.2421H953.279V53.7671H926.834V65.5751H957.584V87.1001ZM974.72 44.4191C968.816 40.3601 967.463 36.6701 967.463 29.7821V11.7011C967.463 5.42809 971.891 1.00009 978.287 1.00009H1025.03V11.5781L1020.84 22.6481H994.4V26.5841L1017.77 42.2051C1023.67 46.1411 1025.03 49.9541 1025.03 56.8421V76.3991C1025.03 82.6721 1020.6 87.1001 1014.33 87.1001H967.463V65.5751H998.09V59.9171L974.72 44.4191ZM1049.73 22.6481H1033.61V1.00009H1093.88V11.7011L1089.58 22.6481H1076.66V87.1001H1049.73V22.6481Z" fill="url(#paint0_linear_1912_18509)"/>
<path class="sl" d="M11.8241 1.00009H58.5641V11.7011L54.3821 22.6481H27.9371V65.5751H58.5641V87.1001H11.8241C5.42808 87.1001 1.00008 82.6721 1.00008 76.3991V11.7011C1.00008 5.42809 5.42808 1.00009 11.8241 1.00009ZM108.541 22.6481H97.8405V65.5751H108.541V22.6481ZM124.654 87.1001H81.7275C75.3315 87.1001 70.9035 82.6721 70.9035 76.3991V11.7011C70.9035 5.42809 75.3315 1.00009 81.7275 1.00009H124.654C131.05 1.00009 135.478 5.42809 135.478 11.7011V76.3991C135.478 82.6721 131.05 87.1001 124.654 87.1001ZM150.296 87.1001V1.00009H177.11V65.5751H204.17V87.1001H150.296ZM242.089 22.6481V65.5751H252.913V22.6481H242.089ZM269.026 87.1001H215.275V1.00009H269.026C275.299 1.00009 279.727 5.42809 279.727 11.7011V76.3991C279.727 82.6721 275.299 87.1001 269.026 87.1001ZM387.69 48.2321H395.562L393.102 22.6481H390.15L387.69 48.2321ZM369.24 1.00009H414.012L426.066 76.3991V87.1001H399.129L397.53 69.7571H385.722L384 87.1001H357.186V76.3991L369.24 1.00009ZM479.4 40.8521H481.614L478.047 11.7011V1.00009H502.893V87.1001H474.357L461.688 47.3711H459.597L463.041 76.3991V87.1001H438.318V1.00009H466.854L479.4 40.8521ZM544.525 22.6481V65.5751H555.349V22.6481H544.525ZM571.462 87.1001H517.711V1.00009H571.462C577.735 1.00009 582.163 5.42809 582.163 11.7011V76.3991C582.163 82.6721 577.735 87.1001 571.462 87.1001ZM688.896 32.2421H699.72V1.00009H726.534V87.1001H699.72V53.7671H688.896V87.1001H662.082V1.00009H688.896V32.2421ZM778.872 22.6481H768.171V65.5751H778.872V22.6481ZM794.985 87.1001H752.058C745.662 87.1001 741.234 82.6721 741.234 76.3991V11.7011C741.234 5.42809 745.662 1.00009 752.058 1.00009H794.985C801.381 1.00009 805.809 5.42809 805.809 11.7011V76.3991C805.809 82.6721 801.381 87.1001 794.985 87.1001ZM861.709 40.8521H863.923L860.356 11.7011V1.00009H885.202V87.1001H856.666L843.997 47.3711H841.906L845.35 76.3991V87.1001H820.627V1.00009H849.163L861.709 40.8521ZM957.584 87.1001H900.02V1.00009H957.584V11.7011L953.279 22.6481H926.834V32.2421H953.279V53.7671H926.834V65.5751H957.584V87.1001ZM974.72 44.4191C968.816 40.3601 967.463 36.6701 967.463 29.7821V11.7011C967.463 5.42809 971.891 1.00009 978.287 1.00009H1025.03V11.5781L1020.84 22.6481H994.4V26.5841L1017.77 42.2051C1023.67 46.1411 1025.03 49.9541 1025.03 56.8421V76.3991C1025.03 82.6721 1020.6 87.1001 1014.33 87.1001H967.463V65.5751H998.09V59.9171L974.72 44.4191ZM1049.73 22.6481H1033.61V1.00009H1093.88V11.7011L1089.58 22.6481H1076.66V87.1001H1049.73V22.6481Z" fill="none" stroke="#FFF689" vector-effect="non-scaling-stroke" mask="url(#path-1-outside-1_1912_18509)"/>
<defs>
<linearGradient id="paint0_linear_1912_18509" x1="546.08" y1="87.1001" x2="546.08" y2="-4.8999" gradientUnits="userSpaceOnUse">
<stop stop-color="#151317"/>
<stop offset="1" stop-color="#151317" stop-opacity="0"/>
</linearGradient>
</defs>
</svg>
