<svg width="1092" height="74" viewBox="0 0 1092 74" fill="none" xmlns="http://www.w3.org/2000/svg">
<mask id="path-1-outside-1_1912_8160" maskUnits="userSpaceOnUse" x="-0.119141" y="-0.899902" width="1093" height="75" fill="black">
<rect fill="white" x="-0.119141" y="-0.899902" width="1093" height="75"/>
<path d="M32.5189 1.00009H55.0759V73.1001H10.0649C4.70886 73.1001 1.00086 69.3921 1.00086 64.1391V1.00009H23.5579V55.0751H32.5189V1.00009ZM101.886 34.3721H103.74L100.753 9.96109V1.00009H121.559V73.1001H97.6631L87.0541 39.8311H85.3031L88.1871 64.1391V73.1001H67.4841V1.00009H91.3801L101.886 34.3721ZM143.031 1.00009H182.171V9.96109L178.669 19.1281H156.524V55.0751H182.171V73.1001H143.031C137.675 73.1001 133.967 69.3921 133.967 64.1391V9.96109C133.967 4.70809 137.675 1.00009 143.031 1.00009ZM224.022 19.1281H215.061V55.0751H224.022V19.1281ZM237.515 73.1001H201.568C196.212 73.1001 192.504 69.3921 192.504 64.1391V9.96109C192.504 4.70809 196.212 1.00009 201.568 1.00009H237.515C242.871 1.00009 246.579 4.70809 246.579 9.96109V64.1391C246.579 69.3921 242.871 73.1001 237.515 73.1001ZM290.506 19.1281H281.545V32.6211H290.506V19.1281ZM258.988 1.00009H304.102C309.355 1.00009 313.063 4.70809 313.063 9.96109V38.2861C313.063 41.6851 310.488 45.4961 307.089 46.4231L314.196 64.1391V73.1001H292.154L286.077 50.6461H281.545V73.1001H258.988V1.00009ZM351.039 27.1621L356.395 1.00009H377.819V9.96109L369.476 34.9901L379.57 64.1391V73.1001H357.116L351.039 45.1871H346.919V73.1001H324.465V1.00009H346.919V27.1621H351.039ZM454.859 19.1281H441.366V1.00009H491.836V9.96109L488.231 19.1281H477.416V73.1001H454.859V19.1281ZM523.536 27.1621H532.6V1.00009H555.054V73.1001H532.6V45.1871H523.536V73.1001H501.082V1.00009H523.536V27.1621ZM615.568 73.1001H567.364V1.00009H615.568V9.96109L611.963 19.1281H589.818V27.1621H611.963V45.1871H589.818V55.0751H615.568V73.1001ZM707.81 73.1001L702.248 38.4921H700.497V73.1001H678.455V64.1391L685.871 1.00009H711.003L716.462 29.4281H718.007L723.466 1.00009H748.701L756.014 64.1391V73.1001H734.075V38.4921H732.221L726.659 73.1001H707.81ZM797.829 19.1281H788.868V55.0751H797.829V19.1281ZM811.322 73.1001H775.375C770.019 73.1001 766.311 69.3921 766.311 64.1391V9.96109C766.311 4.70809 770.019 1.00009 775.375 1.00009H811.322C816.678 1.00009 820.386 4.70809 820.386 9.96109V64.1391C820.386 69.3921 816.678 73.1001 811.322 73.1001ZM860.089 73.1001L854.527 38.4921H852.776V73.1001H830.734V64.1391L838.15 1.00009H863.282L868.741 29.4281H870.286L875.745 1.00009H900.98L908.293 64.1391V73.1001H886.354V38.4921H884.5L878.938 73.1001H860.089ZM966.794 73.1001H918.59V1.00009H966.794V9.96109L963.189 19.1281H941.044V27.1621H963.189V45.1871H941.044V55.0751H966.794V73.1001ZM1011.53 34.3721H1013.38L1010.4 9.96109V1.00009H1031.2V73.1001H1007.31L996.697 39.8311H994.946L997.83 64.1391V73.1001H977.127V1.00009H1001.02L1011.53 34.3721ZM1054.01 19.1281H1040.52V1.00009H1090.99V9.96109L1087.39 19.1281H1076.57V73.1001H1054.01V19.1281Z"/>
</mask>
<path d="M32.5189 1.00009H55.0759V73.1001H10.0649C4.70886 73.1001 1.00086 69.3921 1.00086 64.1391V1.00009H23.5579V55.0751H32.5189V1.00009ZM101.886 34.3721H103.74L100.753 9.96109V1.00009H121.559V73.1001H97.6631L87.0541 39.8311H85.3031L88.1871 64.1391V73.1001H67.4841V1.00009H91.3801L101.886 34.3721ZM143.031 1.00009H182.171V9.96109L178.669 19.1281H156.524V55.0751H182.171V73.1001H143.031C137.675 73.1001 133.967 69.3921 133.967 64.1391V9.96109C133.967 4.70809 137.675 1.00009 143.031 1.00009ZM224.022 19.1281H215.061V55.0751H224.022V19.1281ZM237.515 73.1001H201.568C196.212 73.1001 192.504 69.3921 192.504 64.1391V9.96109C192.504 4.70809 196.212 1.00009 201.568 1.00009H237.515C242.871 1.00009 246.579 4.70809 246.579 9.96109V64.1391C246.579 69.3921 242.871 73.1001 237.515 73.1001ZM290.506 19.1281H281.545V32.6211H290.506V19.1281ZM258.988 1.00009H304.102C309.355 1.00009 313.063 4.70809 313.063 9.96109V38.2861C313.063 41.6851 310.488 45.4961 307.089 46.4231L314.196 64.1391V73.1001H292.154L286.077 50.6461H281.545V73.1001H258.988V1.00009ZM351.039 27.1621L356.395 1.00009H377.819V9.96109L369.476 34.9901L379.57 64.1391V73.1001H357.116L351.039 45.1871H346.919V73.1001H324.465V1.00009H346.919V27.1621H351.039ZM454.859 19.1281H441.366V1.00009H491.836V9.96109L488.231 19.1281H477.416V73.1001H454.859V19.1281ZM523.536 27.1621H532.6V1.00009H555.054V73.1001H532.6V45.1871H523.536V73.1001H501.082V1.00009H523.536V27.1621ZM615.568 73.1001H567.364V1.00009H615.568V9.96109L611.963 19.1281H589.818V27.1621H611.963V45.1871H589.818V55.0751H615.568V73.1001ZM707.81 73.1001L702.248 38.4921H700.497V73.1001H678.455V64.1391L685.871 1.00009H711.003L716.462 29.4281H718.007L723.466 1.00009H748.701L756.014 64.1391V73.1001H734.075V38.4921H732.221L726.659 73.1001H707.81ZM797.829 19.1281H788.868V55.0751H797.829V19.1281ZM811.322 73.1001H775.375C770.019 73.1001 766.311 69.3921 766.311 64.1391V9.96109C766.311 4.70809 770.019 1.00009 775.375 1.00009H811.322C816.678 1.00009 820.386 4.70809 820.386 9.96109V64.1391C820.386 69.3921 816.678 73.1001 811.322 73.1001ZM860.089 73.1001L854.527 38.4921H852.776V73.1001H830.734V64.1391L838.15 1.00009H863.282L868.741 29.4281H870.286L875.745 1.00009H900.98L908.293 64.1391V73.1001H886.354V38.4921H884.5L878.938 73.1001H860.089ZM966.794 73.1001H918.59V1.00009H966.794V9.96109L963.189 19.1281H941.044V27.1621H963.189V45.1871H941.044V55.0751H966.794V73.1001ZM1011.53 34.3721H1013.38L1010.4 9.96109V1.00009H1031.2V73.1001H1007.31L996.697 39.8311H994.946L997.83 64.1391V73.1001H977.127V1.00009H1001.02L1011.53 34.3721ZM1054.01 19.1281H1040.52V1.00009H1090.99V9.96109L1087.39 19.1281H1076.57V73.1001H1054.01V19.1281Z" fill="url(#paint0_linear_1912_8160)"/>
<path d="M32.5189 1.00009V9.15527e-05H31.5189V1.00009H32.5189ZM55.0759 1.00009H56.0759V9.15527e-05H55.0759V1.00009ZM55.0759 73.1001V74.1001H56.0759V73.1001H55.0759ZM1.00086 1.00009V9.15527e-05H0.000859737V1.00009H1.00086ZM23.5579 1.00009H24.5579V9.15527e-05H23.5579V1.00009ZM23.5579 55.0751H22.5579V56.0751H23.5579V55.0751ZM32.5189 55.0751V56.0751H33.5189V55.0751H32.5189ZM32.5189 1.00009V2.00009H55.0759V1.00009V9.15527e-05H32.5189V1.00009ZM55.0759 1.00009H54.0759V73.1001H55.0759H56.0759V1.00009H55.0759ZM55.0759 73.1001V72.1001H10.0649V73.1001V74.1001H55.0759V73.1001ZM10.0649 73.1001V72.1001C7.62338 72.1001 5.61927 71.259 4.2286 69.8795C2.83824 68.5004 2.00086 66.5237 2.00086 64.1391H1.00086H0.000859737C0.000859737 67.0075 1.01748 69.5113 2.82012 71.2994C4.62245 73.0872 7.15034 74.1001 10.0649 74.1001V73.1001ZM1.00086 64.1391H2.00086V1.00009H1.00086H0.000859737V64.1391H1.00086ZM1.00086 1.00009V2.00009H23.5579V1.00009V9.15527e-05H1.00086V1.00009ZM23.5579 1.00009H22.5579V55.0751H23.5579H24.5579V1.00009H23.5579ZM23.5579 55.0751V56.0751H32.5189V55.0751V54.0751H23.5579V55.0751ZM32.5189 55.0751H33.5189V1.00009H32.5189H31.5189V55.0751H32.5189ZM101.886 34.3721L100.932 34.6724L101.153 35.3721H101.886V34.3721ZM103.74 34.3721V35.3721H104.87L104.733 34.2506L103.74 34.3721ZM100.753 9.96109H99.7531V10.022L99.7605 10.0826L100.753 9.96109ZM100.753 1.00009V9.15527e-05H99.7531V1.00009H100.753ZM121.559 1.00009H122.559V9.15527e-05H121.559V1.00009ZM121.559 73.1001V74.1001H122.559V73.1001H121.559ZM97.6631 73.1001L96.7104 73.4039L96.9324 74.1001H97.6631V73.1001ZM87.0541 39.8311L88.0069 39.5273L87.7849 38.8311H87.0541V39.8311ZM85.3031 39.8311V38.8311H84.1775L84.3101 39.9489L85.3031 39.8311ZM88.1871 64.1391H89.1871V64.08L89.1802 64.0213L88.1871 64.1391ZM88.1871 73.1001V74.1001H89.1871V73.1001H88.1871ZM67.4841 73.1001H66.4841V74.1001H67.4841V73.1001ZM67.4841 1.00009V9.15527e-05H66.4841V1.00009H67.4841ZM91.3801 1.00009L92.334 0.699806L92.1137 9.15527e-05H91.3801V1.00009ZM101.886 34.3721V35.3721H103.74V34.3721V33.3721H101.886V34.3721ZM103.74 34.3721L104.733 34.2506L101.746 9.83964L100.753 9.96109L99.7605 10.0826L102.748 34.4936L103.74 34.3721ZM100.753 9.96109H101.753V1.00009H100.753H99.7531V9.96109H100.753ZM100.753 1.00009V2.00009H121.559V1.00009V9.15527e-05H100.753V1.00009ZM121.559 1.00009H120.559V73.1001H121.559H122.559V1.00009H121.559ZM121.559 73.1001V72.1001H97.6631V73.1001V74.1001H121.559V73.1001ZM97.6631 73.1001L98.6159 72.7963L88.0069 39.5273L87.0541 39.8311L86.1014 40.1349L96.7104 73.4039L97.6631 73.1001ZM87.0541 39.8311V38.8311H85.3031V39.8311V40.8311H87.0541V39.8311ZM85.3031 39.8311L84.3101 39.9489L87.1941 64.2569L88.1871 64.1391L89.1802 64.0213L86.2962 39.7133L85.3031 39.8311ZM88.1871 64.1391H87.1871V73.1001H88.1871H89.1871V64.1391H88.1871ZM88.1871 73.1001V72.1001H67.4841V73.1001V74.1001H88.1871V73.1001ZM67.4841 73.1001H68.4841V1.00009H67.4841H66.4841V73.1001H67.4841ZM67.4841 1.00009V2.00009H91.3801V1.00009V9.15527e-05H67.4841V1.00009ZM91.3801 1.00009L90.4263 1.30038L100.932 34.6724L101.886 34.3721L102.84 34.0718L92.334 0.699806L91.3801 1.00009ZM182.171 1.00009H183.171V9.15527e-05H182.171V1.00009ZM182.171 9.96109L183.106 10.318L183.171 10.1456V9.96109H182.171ZM178.669 19.1281V20.1281H179.358L179.604 19.485L178.669 19.1281ZM156.524 19.1281V18.1281H155.524V19.1281H156.524ZM156.524 55.0751H155.524V56.0751H156.524V55.0751ZM182.171 55.0751H183.171V54.0751H182.171V55.0751ZM182.171 73.1001V74.1001H183.171V73.1001H182.171ZM143.031 1.00009V2.00009H182.171V1.00009V9.15527e-05H143.031V1.00009ZM182.171 1.00009H181.171V9.96109H182.171H183.171V1.00009H182.171ZM182.171 9.96109L181.237 9.60423L177.735 18.7712L178.669 19.1281L179.604 19.485L183.106 10.318L182.171 9.96109ZM178.669 19.1281V18.1281H156.524V19.1281V20.1281H178.669V19.1281ZM156.524 19.1281H155.524V55.0751H156.524H157.524V19.1281H156.524ZM156.524 55.0751V56.0751H182.171V55.0751V54.0751H156.524V55.0751ZM182.171 55.0751H181.171V73.1001H182.171H183.171V55.0751H182.171ZM182.171 73.1001V72.1001H143.031V73.1001V74.1001H182.171V73.1001ZM143.031 73.1001V72.1001C140.59 72.1001 138.586 71.259 137.195 69.8795C135.805 68.5004 134.967 66.5237 134.967 64.1391H133.967H132.967C132.967 67.0075 133.984 69.5113 135.787 71.2994C137.589 73.0872 140.117 74.1001 143.031 74.1001V73.1001ZM133.967 64.1391H134.967V9.96109H133.967H132.967V64.1391H133.967ZM133.967 9.96109H134.967C134.967 7.5765 135.805 5.59982 137.195 4.22068C138.586 2.84122 140.59 2.00009 143.031 2.00009V1.00009V9.15527e-05C140.117 9.15527e-05 137.589 1.01296 135.787 2.80076C133.984 4.58886 132.967 7.09269 132.967 9.96109H133.967ZM224.022 19.1281H225.022V18.1281H224.022V19.1281ZM215.061 19.1281V18.1281H214.061V19.1281H215.061ZM215.061 55.0751H214.061V56.0751H215.061V55.0751ZM224.022 55.0751V56.0751H225.022V55.0751H224.022ZM224.022 19.1281V18.1281H215.061V19.1281V20.1281H224.022V19.1281ZM215.061 19.1281H214.061V55.0751H215.061H216.061V19.1281H215.061ZM215.061 55.0751V56.0751H224.022V55.0751V54.0751H215.061V55.0751ZM224.022 55.0751H225.022V19.1281H224.022H223.022V55.0751H224.022ZM237.515 73.1001V72.1001H201.568V73.1001V74.1001H237.515V73.1001ZM201.568 73.1001V72.1001C199.127 72.1001 197.123 71.259 195.732 69.8795C194.342 68.5004 193.504 66.5237 193.504 64.1391H192.504H191.504C191.504 67.0075 192.521 69.5113 194.324 71.2994C196.126 73.0872 198.654 74.1001 201.568 74.1001V73.1001ZM192.504 64.1391H193.504V9.96109H192.504H191.504V64.1391H192.504ZM192.504 9.96109H193.504C193.504 7.5765 194.342 5.59982 195.732 4.22068C197.123 2.84122 199.127 2.00009 201.568 2.00009V1.00009V9.15527e-05C198.654 9.15527e-05 196.126 1.01296 194.324 2.80076C192.521 4.58886 191.504 7.09269 191.504 9.96109H192.504ZM201.568 1.00009V2.00009H237.515V1.00009V9.15527e-05H201.568V1.00009ZM237.515 1.00009V2.00009C239.957 2.00009 241.961 2.84122 243.352 4.22068C244.742 5.59982 245.579 7.5765 245.579 9.96109H246.579H247.579C247.579 7.09269 246.563 4.58886 244.76 2.80076C242.958 1.01296 240.43 9.15527e-05 237.515 9.15527e-05V1.00009ZM246.579 9.96109H245.579V64.1391H246.579H247.579V9.96109H246.579ZM246.579 64.1391H245.579C245.579 66.5237 244.742 68.5004 243.352 69.8795C241.961 71.259 239.957 72.1001 237.515 72.1001V73.1001V74.1001C240.43 74.1001 242.958 73.0872 244.76 71.2994C246.563 69.5113 247.579 67.0075 247.579 64.1391H246.579ZM290.506 19.1281H291.506V18.1281H290.506V19.1281ZM281.545 19.1281V18.1281H280.545V19.1281H281.545ZM281.545 32.6211H280.545V33.6211H281.545V32.6211ZM290.506 32.6211V33.6211H291.506V32.6211H290.506ZM258.988 1.00009V9.15527e-05H257.988V1.00009H258.988ZM307.089 46.4231L306.826 45.4583L305.743 45.7537L306.161 46.7954L307.089 46.4231ZM314.196 64.1391H315.196V63.946L315.124 63.7668L314.196 64.1391ZM314.196 73.1001V74.1001H315.196V73.1001H314.196ZM292.154 73.1001L291.188 73.3613L291.388 74.1001H292.154V73.1001ZM286.077 50.6461L287.042 50.3849L286.842 49.6461H286.077V50.6461ZM281.545 50.6461V49.6461H280.545V50.6461H281.545ZM281.545 73.1001V74.1001H282.545V73.1001H281.545ZM258.988 73.1001H257.988V74.1001H258.988V73.1001ZM290.506 19.1281V18.1281H281.545V19.1281V20.1281H290.506V19.1281ZM281.545 19.1281H280.545V32.6211H281.545H282.545V19.1281H281.545ZM281.545 32.6211V33.6211H290.506V32.6211V31.6211H281.545V32.6211ZM290.506 32.6211H291.506V19.1281H290.506H289.506V32.6211H290.506ZM258.988 1.00009V2.00009H304.102V1.00009V9.15527e-05H258.988V1.00009ZM304.102 1.00009V2.00009C306.487 2.00009 308.465 2.83778 309.845 4.21783C311.225 5.59787 312.063 7.57623 312.063 9.96109H313.063H314.063C314.063 7.09296 313.046 4.59081 311.259 2.80361C309.472 1.01641 306.97 9.15527e-05 304.102 9.15527e-05V1.00009ZM313.063 9.96109H312.063V38.2861H313.063H314.063V9.96109H313.063ZM313.063 38.2861H312.063C312.063 39.7457 311.504 41.3487 310.537 42.6997C309.571 44.0503 308.256 45.0683 306.826 45.4583L307.089 46.4231L307.352 47.3879C309.321 46.8509 310.993 45.4998 312.164 43.8635C313.334 42.2275 314.063 40.2255 314.063 38.2861H313.063ZM307.089 46.4231L306.161 46.7954L313.268 64.5114L314.196 64.1391L315.124 63.7668L308.017 46.0508L307.089 46.4231ZM314.196 64.1391H313.196V73.1001H314.196H315.196V64.1391H314.196ZM314.196 73.1001V72.1001H292.154V73.1001V74.1001H314.196V73.1001ZM292.154 73.1001L293.119 72.8389L287.042 50.3849L286.077 50.6461L285.111 50.9073L291.188 73.3613L292.154 73.1001ZM286.077 50.6461V49.6461H281.545V50.6461V51.6461H286.077V50.6461ZM281.545 50.6461H280.545V73.1001H281.545H282.545V50.6461H281.545ZM281.545 73.1001V72.1001H258.988V73.1001V74.1001H281.545V73.1001ZM258.988 73.1001H259.988V1.00009H258.988H257.988V73.1001H258.988ZM351.039 27.1621V28.1621H351.855L352.019 27.3627L351.039 27.1621ZM356.395 1.00009V9.15527e-05H355.579L355.415 0.79953L356.395 1.00009ZM377.819 1.00009H378.819V9.15527e-05H377.819V1.00009ZM377.819 9.96109L378.768 10.2773L378.819 10.1234V9.96109H377.819ZM369.476 34.9901L368.527 34.6739L368.42 34.9962L368.531 35.3173L369.476 34.9901ZM379.57 64.1391H380.57V63.9709L380.515 63.8119L379.57 64.1391ZM379.57 73.1001V74.1001H380.57V73.1001H379.57ZM357.116 73.1001L356.139 73.3128L356.31 74.1001H357.116V73.1001ZM351.039 45.1871L352.016 44.9744L351.845 44.1871H351.039V45.1871ZM346.919 45.1871V44.1871H345.919V45.1871H346.919ZM346.919 73.1001V74.1001H347.919V73.1001H346.919ZM324.465 73.1001H323.465V74.1001H324.465V73.1001ZM324.465 1.00009V9.15527e-05H323.465V1.00009H324.465ZM346.919 1.00009H347.919V9.15527e-05H346.919V1.00009ZM346.919 27.1621H345.919V28.1621H346.919V27.1621ZM351.039 27.1621L352.019 27.3627L357.375 1.20066L356.395 1.00009L355.415 0.79953L350.059 26.9615L351.039 27.1621ZM356.395 1.00009V2.00009H377.819V1.00009V9.15527e-05H356.395V1.00009ZM377.819 1.00009H376.819V9.96109H377.819H378.819V1.00009H377.819ZM377.819 9.96109L376.87 9.64487L368.527 34.6739L369.476 34.9901L370.425 35.3063L378.768 10.2773L377.819 9.96109ZM369.476 34.9901L368.531 35.3173L378.625 64.4663L379.57 64.1391L380.515 63.8119L370.421 34.6629L369.476 34.9901ZM379.57 64.1391H378.57V73.1001H379.57H380.57V64.1391H379.57ZM379.57 73.1001V72.1001H357.116V73.1001V74.1001H379.57V73.1001ZM357.116 73.1001L358.093 72.8874L352.016 44.9744L351.039 45.1871L350.062 45.3998L356.139 73.3128L357.116 73.1001ZM351.039 45.1871V44.1871H346.919V45.1871V46.1871H351.039V45.1871ZM346.919 45.1871H345.919V73.1001H346.919H347.919V45.1871H346.919ZM346.919 73.1001V72.1001H324.465V73.1001V74.1001H346.919V73.1001ZM324.465 73.1001H325.465V1.00009H324.465H323.465V73.1001H324.465ZM324.465 1.00009V2.00009H346.919V1.00009V9.15527e-05H324.465V1.00009ZM346.919 1.00009H345.919V27.1621H346.919H347.919V1.00009H346.919ZM346.919 27.1621V28.1621H351.039V27.1621V26.1621H346.919V27.1621ZM454.859 19.1281H455.859V18.1281H454.859V19.1281ZM441.366 19.1281H440.366V20.1281H441.366V19.1281ZM441.366 1.00009V9.15527e-05H440.366V1.00009H441.366ZM491.836 1.00009H492.836V9.15527e-05H491.836V1.00009ZM491.836 9.96109L492.767 10.3271L492.836 10.1507V9.96109H491.836ZM488.231 19.1281V20.1281H488.912L489.162 19.4941L488.231 19.1281ZM477.416 19.1281V18.1281H476.416V19.1281H477.416ZM477.416 73.1001V74.1001H478.416V73.1001H477.416ZM454.859 73.1001H453.859V74.1001H454.859V73.1001ZM454.859 19.1281V18.1281H441.366V19.1281V20.1281H454.859V19.1281ZM441.366 19.1281H442.366V1.00009H441.366H440.366V19.1281H441.366ZM441.366 1.00009V2.00009H491.836V1.00009V9.15527e-05H441.366V1.00009ZM491.836 1.00009H490.836V9.96109H491.836H492.836V1.00009H491.836ZM491.836 9.96109L490.905 9.59512L487.3 18.7621L488.231 19.1281L489.162 19.4941L492.767 10.3271L491.836 9.96109ZM488.231 19.1281V18.1281H477.416V19.1281V20.1281H488.231V19.1281ZM477.416 19.1281H476.416V73.1001H477.416H478.416V19.1281H477.416ZM477.416 73.1001V72.1001H454.859V73.1001V74.1001H477.416V73.1001ZM454.859 73.1001H455.859V19.1281H454.859H453.859V73.1001H454.859ZM523.536 27.1621H522.536V28.1621H523.536V27.1621ZM532.6 27.1621V28.1621H533.6V27.1621H532.6ZM532.6 1.00009V9.15527e-05H531.6V1.00009H532.6ZM555.054 1.00009H556.054V9.15527e-05H555.054V1.00009ZM555.054 73.1001V74.1001H556.054V73.1001H555.054ZM532.6 73.1001H531.6V74.1001H532.6V73.1001ZM532.6 45.1871H533.6V44.1871H532.6V45.1871ZM523.536 45.1871V44.1871H522.536V45.1871H523.536ZM523.536 73.1001V74.1001H524.536V73.1001H523.536ZM501.082 73.1001H500.082V74.1001H501.082V73.1001ZM501.082 1.00009V9.15527e-05H500.082V1.00009H501.082ZM523.536 1.00009H524.536V9.15527e-05H523.536V1.00009ZM523.536 27.1621V28.1621H532.6V27.1621V26.1621H523.536V27.1621ZM532.6 27.1621H533.6V1.00009H532.6H531.6V27.1621H532.6ZM532.6 1.00009V2.00009H555.054V1.00009V9.15527e-05H532.6V1.00009ZM555.054 1.00009H554.054V73.1001H555.054H556.054V1.00009H555.054ZM555.054 73.1001V72.1001H532.6V73.1001V74.1001H555.054V73.1001ZM532.6 73.1001H533.6V45.1871H532.6H531.6V73.1001H532.6ZM532.6 45.1871V44.1871H523.536V45.1871V46.1871H532.6V45.1871ZM523.536 45.1871H522.536V73.1001H523.536H524.536V45.1871H523.536ZM523.536 73.1001V72.1001H501.082V73.1001V74.1001H523.536V73.1001ZM501.082 73.1001H502.082V1.00009H501.082H500.082V73.1001H501.082ZM501.082 1.00009V2.00009H523.536V1.00009V9.15527e-05H501.082V1.00009ZM523.536 1.00009H522.536V27.1621H523.536H524.536V1.00009H523.536ZM615.568 73.1001V74.1001H616.568V73.1001H615.568ZM567.364 73.1001H566.364V74.1001H567.364V73.1001ZM567.364 1.00009V9.15527e-05H566.364V1.00009H567.364ZM615.568 1.00009H616.568V9.15527e-05H615.568V1.00009ZM615.568 9.96109L616.499 10.3271L616.568 10.1507V9.96109H615.568ZM611.963 19.1281V20.1281H612.644L612.894 19.4941L611.963 19.1281ZM589.818 19.1281V18.1281H588.818V19.1281H589.818ZM589.818 27.1621H588.818V28.1621H589.818V27.1621ZM611.963 27.1621H612.963V26.1621H611.963V27.1621ZM611.963 45.1871V46.1871H612.963V45.1871H611.963ZM589.818 45.1871V44.1871H588.818V45.1871H589.818ZM589.818 55.0751H588.818V56.0751H589.818V55.0751ZM615.568 55.0751H616.568V54.0751H615.568V55.0751ZM615.568 73.1001V72.1001H567.364V73.1001V74.1001H615.568V73.1001ZM567.364 73.1001H568.364V1.00009H567.364H566.364V73.1001H567.364ZM567.364 1.00009V2.00009H615.568V1.00009V9.15527e-05H567.364V1.00009ZM615.568 1.00009H614.568V9.96109H615.568H616.568V1.00009H615.568ZM615.568 9.96109L614.637 9.59512L611.032 18.7621L611.963 19.1281L612.894 19.4941L616.499 10.3271L615.568 9.96109ZM611.963 19.1281V18.1281H589.818V19.1281V20.1281H611.963V19.1281ZM589.818 19.1281H588.818V27.1621H589.818H590.818V19.1281H589.818ZM589.818 27.1621V28.1621H611.963V27.1621V26.1621H589.818V27.1621ZM611.963 27.1621H610.963V45.1871H611.963H612.963V27.1621H611.963ZM611.963 45.1871V44.1871H589.818V45.1871V46.1871H611.963V45.1871ZM589.818 45.1871H588.818V55.0751H589.818H590.818V45.1871H589.818ZM589.818 55.0751V56.0751H615.568V55.0751V54.0751H589.818V55.0751ZM615.568 55.0751H614.568V73.1001H615.568H616.568V55.0751H615.568ZM707.81 73.1001L706.823 73.2588L706.958 74.1001H707.81V73.1001ZM702.248 38.4921L703.236 38.3334L703.1 37.4921H702.248V38.4921ZM700.497 38.4921V37.4921H699.497V38.4921H700.497ZM700.497 73.1001V74.1001H701.497V73.1001H700.497ZM678.455 73.1001H677.455V74.1001H678.455V73.1001ZM678.455 64.1391L677.462 64.0224L677.455 64.0806V64.1391H678.455ZM685.871 1.00009V9.15527e-05H684.982L684.878 0.883438L685.871 1.00009ZM711.003 1.00009L711.985 0.811508L711.829 9.15527e-05H711.003V1.00009ZM716.462 29.4281L715.48 29.6167L715.636 30.4281H716.462V29.4281ZM718.007 29.4281V30.4281H718.833L718.989 29.6167L718.007 29.4281ZM723.466 1.00009V9.15527e-05H722.64L722.484 0.811508L723.466 1.00009ZM748.701 1.00009L749.695 0.88504L749.592 9.15527e-05H748.701V1.00009ZM756.014 64.1391H757.014V64.0814L757.008 64.024L756.014 64.1391ZM756.014 73.1001V74.1001H757.014V73.1001H756.014ZM734.075 73.1001H733.075V74.1001H734.075V73.1001ZM734.075 38.4921H735.075V37.4921H734.075V38.4921ZM732.221 38.4921V37.4921H731.369L731.234 38.3334L732.221 38.4921ZM726.659 73.1001V74.1001H727.511L727.647 73.2588L726.659 73.1001ZM707.81 73.1001L708.798 72.9414L703.236 38.3334L702.248 38.4921L701.261 38.6508L706.823 73.2588L707.81 73.1001ZM702.248 38.4921V37.4921H700.497V38.4921V39.4921H702.248V38.4921ZM700.497 38.4921H699.497V73.1001H700.497H701.497V38.4921H700.497ZM700.497 73.1001V72.1001H678.455V73.1001V74.1001H700.497V73.1001ZM678.455 73.1001H679.455V64.1391H678.455H677.455V73.1001H678.455ZM678.455 64.1391L679.448 64.2558L686.864 1.11674L685.871 1.00009L684.878 0.883438L677.462 64.0224L678.455 64.1391ZM685.871 1.00009V2.00009H711.003V1.00009V9.15527e-05H685.871V1.00009ZM711.003 1.00009L710.021 1.18867L715.48 29.6167L716.462 29.4281L717.444 29.2395L711.985 0.811508L711.003 1.00009ZM716.462 29.4281V30.4281H718.007V29.4281V28.4281H716.462V29.4281ZM718.007 29.4281L718.989 29.6167L724.448 1.18867L723.466 1.00009L722.484 0.811508L717.025 29.2395L718.007 29.4281ZM723.466 1.00009V2.00009H748.701V1.00009V9.15527e-05H723.466V1.00009ZM748.701 1.00009L747.708 1.11515L755.021 64.2542L756.014 64.1391L757.008 64.024L749.695 0.88504L748.701 1.00009ZM756.014 64.1391H755.014V73.1001H756.014H757.014V64.1391H756.014ZM756.014 73.1001V72.1001H734.075V73.1001V74.1001H756.014V73.1001ZM734.075 73.1001H735.075V38.4921H734.075H733.075V73.1001H734.075ZM734.075 38.4921V37.4921H732.221V38.4921V39.4921H734.075V38.4921ZM732.221 38.4921L731.234 38.3334L725.672 72.9414L726.659 73.1001L727.647 73.2588L733.209 38.6508L732.221 38.4921ZM726.659 73.1001V72.1001H707.81V73.1001V74.1001H726.659V73.1001ZM797.829 19.1281H798.829V18.1281H797.829V19.1281ZM788.868 19.1281V18.1281H787.868V19.1281H788.868ZM788.868 55.0751H787.868V56.0751H788.868V55.0751ZM797.829 55.0751V56.0751H798.829V55.0751H797.829ZM797.829 19.1281V18.1281H788.868V19.1281V20.1281H797.829V19.1281ZM788.868 19.1281H787.868V55.0751H788.868H789.868V19.1281H788.868ZM788.868 55.0751V56.0751H797.829V55.0751V54.0751H788.868V55.0751ZM797.829 55.0751H798.829V19.1281H797.829H796.829V55.0751H797.829ZM811.322 73.1001V72.1001H775.375V73.1001V74.1001H811.322V73.1001ZM775.375 73.1001V72.1001C772.933 72.1001 770.929 71.259 769.539 69.8795C768.148 68.5004 767.311 66.5237 767.311 64.1391H766.311H765.311C765.311 67.0075 766.328 69.5113 768.13 71.2994C769.933 73.0872 772.46 74.1001 775.375 74.1001V73.1001ZM766.311 64.1391H767.311V9.96109H766.311H765.311V64.1391H766.311ZM766.311 9.96109H767.311C767.311 7.5765 768.148 5.59982 769.539 4.22068C770.929 2.84122 772.933 2.00009 775.375 2.00009V1.00009V9.15527e-05C772.46 9.15527e-05 769.933 1.01296 768.13 2.80076C766.328 4.58886 765.311 7.09269 765.311 9.96109H766.311ZM775.375 1.00009V2.00009H811.322V1.00009V9.15527e-05H775.375V1.00009ZM811.322 1.00009V2.00009C813.763 2.00009 815.768 2.84122 817.158 4.22068C818.549 5.59982 819.386 7.5765 819.386 9.96109H820.386H821.386C821.386 7.09269 820.369 4.58886 818.567 2.80076C816.764 1.01296 814.237 9.15527e-05 811.322 9.15527e-05V1.00009ZM820.386 9.96109H819.386V64.1391H820.386H821.386V9.96109H820.386ZM820.386 64.1391H819.386C819.386 66.5237 818.549 68.5004 817.158 69.8795C815.768 71.259 813.763 72.1001 811.322 72.1001V73.1001V74.1001C814.237 74.1001 816.764 73.0872 818.567 71.2994C820.369 69.5113 821.386 67.0075 821.386 64.1391H820.386ZM860.089 73.1001L859.102 73.2588L859.237 74.1001H860.089V73.1001ZM854.527 38.4921L855.515 38.3334L855.379 37.4921H854.527V38.4921ZM852.776 38.4921V37.4921H851.776V38.4921H852.776ZM852.776 73.1001V74.1001H853.776V73.1001H852.776ZM830.734 73.1001H829.734V74.1001H830.734V73.1001ZM830.734 64.1391L829.741 64.0224L829.734 64.0806V64.1391H830.734ZM838.15 1.00009V9.15527e-05H837.261L837.157 0.883438L838.15 1.00009ZM863.282 1.00009L864.264 0.811508L864.109 9.15527e-05H863.282V1.00009ZM868.741 29.4281L867.759 29.6167L867.915 30.4281H868.741V29.4281ZM870.286 29.4281V30.4281H871.112L871.268 29.6167L870.286 29.4281ZM875.745 1.00009V9.15527e-05H874.919L874.763 0.811508L875.745 1.00009ZM900.98 1.00009L901.974 0.88504L901.871 9.15527e-05H900.98V1.00009ZM908.293 64.1391H909.293V64.0814L909.287 64.024L908.293 64.1391ZM908.293 73.1001V74.1001H909.293V73.1001H908.293ZM886.354 73.1001H885.354V74.1001H886.354V73.1001ZM886.354 38.4921H887.354V37.4921H886.354V38.4921ZM884.5 38.4921V37.4921H883.648L883.513 38.3334L884.5 38.4921ZM878.938 73.1001V74.1001H879.79L879.926 73.2588L878.938 73.1001ZM860.089 73.1001L861.077 72.9414L855.515 38.3334L854.527 38.4921L853.54 38.6508L859.102 73.2588L860.089 73.1001ZM854.527 38.4921V37.4921H852.776V38.4921V39.4921H854.527V38.4921ZM852.776 38.4921H851.776V73.1001H852.776H853.776V38.4921H852.776ZM852.776 73.1001V72.1001H830.734V73.1001V74.1001H852.776V73.1001ZM830.734 73.1001H831.734V64.1391H830.734H829.734V73.1001H830.734ZM830.734 64.1391L831.727 64.2558L839.143 1.11674L838.15 1.00009L837.157 0.883438L829.741 64.0224L830.734 64.1391ZM838.15 1.00009V2.00009H863.282V1.00009V9.15527e-05H838.15V1.00009ZM863.282 1.00009L862.3 1.18867L867.759 29.6167L868.741 29.4281L869.723 29.2395L864.264 0.811508L863.282 1.00009ZM868.741 29.4281V30.4281H870.286V29.4281V28.4281H868.741V29.4281ZM870.286 29.4281L871.268 29.6167L876.727 1.18867L875.745 1.00009L874.763 0.811508L869.304 29.2395L870.286 29.4281ZM875.745 1.00009V2.00009H900.98V1.00009V9.15527e-05H875.745V1.00009ZM900.98 1.00009L899.987 1.11515L907.3 64.2542L908.293 64.1391L909.287 64.024L901.974 0.88504L900.98 1.00009ZM908.293 64.1391H907.293V73.1001H908.293H909.293V64.1391H908.293ZM908.293 73.1001V72.1001H886.354V73.1001V74.1001H908.293V73.1001ZM886.354 73.1001H887.354V38.4921H886.354H885.354V73.1001H886.354ZM886.354 38.4921V37.4921H884.5V38.4921V39.4921H886.354V38.4921ZM884.5 38.4921L883.513 38.3334L877.951 72.9414L878.938 73.1001L879.926 73.2588L885.488 38.6508L884.5 38.4921ZM878.938 73.1001V72.1001H860.089V73.1001V74.1001H878.938V73.1001ZM966.794 73.1001V74.1001H967.794V73.1001H966.794ZM918.59 73.1001H917.59V74.1001H918.59V73.1001ZM918.59 1.00009V9.15527e-05H917.59V1.00009H918.59ZM966.794 1.00009H967.794V9.15527e-05H966.794V1.00009ZM966.794 9.96109L967.725 10.3271L967.794 10.1507V9.96109H966.794ZM963.189 19.1281V20.1281H963.87L964.12 19.4941L963.189 19.1281ZM941.044 19.1281V18.1281H940.044V19.1281H941.044ZM941.044 27.1621H940.044V28.1621H941.044V27.1621ZM963.189 27.1621H964.189V26.1621H963.189V27.1621ZM963.189 45.1871V46.1871H964.189V45.1871H963.189ZM941.044 45.1871V44.1871H940.044V45.1871H941.044ZM941.044 55.0751H940.044V56.0751H941.044V55.0751ZM966.794 55.0751H967.794V54.0751H966.794V55.0751ZM966.794 73.1001V72.1001H918.59V73.1001V74.1001H966.794V73.1001ZM918.59 73.1001H919.59V1.00009H918.59H917.59V73.1001H918.59ZM918.59 1.00009V2.00009H966.794V1.00009V9.15527e-05H918.59V1.00009ZM966.794 1.00009H965.794V9.96109H966.794H967.794V1.00009H966.794ZM966.794 9.96109L965.863 9.59512L962.258 18.7621L963.189 19.1281L964.12 19.4941L967.725 10.3271L966.794 9.96109ZM963.189 19.1281V18.1281H941.044V19.1281V20.1281H963.189V19.1281ZM941.044 19.1281H940.044V27.1621H941.044H942.044V19.1281H941.044ZM941.044 27.1621V28.1621H963.189V27.1621V26.1621H941.044V27.1621ZM963.189 27.1621H962.189V45.1871H963.189H964.189V27.1621H963.189ZM963.189 45.1871V44.1871H941.044V45.1871V46.1871H963.189V45.1871ZM941.044 45.1871H940.044V55.0751H941.044H942.044V45.1871H941.044ZM941.044 55.0751V56.0751H966.794V55.0751V54.0751H941.044V55.0751ZM966.794 55.0751H965.794V73.1001H966.794H967.794V55.0751H966.794ZM1011.53 34.3721L1010.58 34.6724L1010.8 35.3721H1011.53V34.3721ZM1013.38 34.3721V35.3721H1014.51L1014.38 34.2506L1013.38 34.3721ZM1010.4 9.96109H1009.4V10.022L1009.4 10.0826L1010.4 9.96109ZM1010.4 1.00009V9.15527e-05H1009.4V1.00009H1010.4ZM1031.2 1.00009H1032.2V9.15527e-05H1031.2V1.00009ZM1031.2 73.1001V74.1001H1032.2V73.1001H1031.2ZM1007.31 73.1001L1006.35 73.4039L1006.58 74.1001H1007.31V73.1001ZM996.697 39.8311L997.65 39.5273L997.428 38.8311H996.697V39.8311ZM994.946 39.8311V38.8311H993.82L993.953 39.9489L994.946 39.8311ZM997.83 64.1391H998.83V64.08L998.823 64.0213L997.83 64.1391ZM997.83 73.1001V74.1001H998.83V73.1001H997.83ZM977.127 73.1001H976.127V74.1001H977.127V73.1001ZM977.127 1.00009V9.15527e-05H976.127V1.00009H977.127ZM1001.02 1.00009L1001.98 0.699806L1001.76 9.15527e-05H1001.02V1.00009ZM1011.53 34.3721V35.3721H1013.38V34.3721V33.3721H1011.53V34.3721ZM1013.38 34.3721L1014.38 34.2506L1011.39 9.83964L1010.4 9.96109L1009.4 10.0826L1012.39 34.4936L1013.38 34.3721ZM1010.4 9.96109H1011.4V1.00009H1010.4H1009.4V9.96109H1010.4ZM1010.4 1.00009V2.00009H1031.2V1.00009V9.15527e-05H1010.4V1.00009ZM1031.2 1.00009H1030.2V73.1001H1031.2H1032.2V1.00009H1031.2ZM1031.2 73.1001V72.1001H1007.31V73.1001V74.1001H1031.2V73.1001ZM1007.31 73.1001L1008.26 72.7963L997.65 39.5273L996.697 39.8311L995.744 40.1349L1006.35 73.4039L1007.31 73.1001ZM996.697 39.8311V38.8311H994.946V39.8311V40.8311H996.697V39.8311ZM994.946 39.8311L993.953 39.9489L996.837 64.2569L997.83 64.1391L998.823 64.0213L995.939 39.7133L994.946 39.8311ZM997.83 64.1391H996.83V73.1001H997.83H998.83V64.1391H997.83ZM997.83 73.1001V72.1001H977.127V73.1001V74.1001H997.83V73.1001ZM977.127 73.1001H978.127V1.00009H977.127H976.127V73.1001H977.127ZM977.127 1.00009V2.00009H1001.02V1.00009V9.15527e-05H977.127V1.00009ZM1001.02 1.00009L1000.07 1.30038L1010.58 34.6724L1011.53 34.3721L1012.48 34.0718L1001.98 0.699806L1001.02 1.00009ZM1054.01 19.1281H1055.01V18.1281H1054.01V19.1281ZM1040.52 19.1281H1039.52V20.1281H1040.52V19.1281ZM1040.52 1.00009V9.15527e-05H1039.52V1.00009H1040.52ZM1090.99 1.00009H1091.99V9.15527e-05H1090.99V1.00009ZM1090.99 9.96109L1091.92 10.3271L1091.99 10.1507V9.96109H1090.99ZM1087.39 19.1281V20.1281H1088.07L1088.32 19.4941L1087.39 19.1281ZM1076.57 19.1281V18.1281H1075.57V19.1281H1076.57ZM1076.57 73.1001V74.1001H1077.57V73.1001H1076.57ZM1054.01 73.1001H1053.01V74.1001H1054.01V73.1001ZM1054.01 19.1281V18.1281H1040.52V19.1281V20.1281H1054.01V19.1281ZM1040.52 19.1281H1041.52V1.00009H1040.52H1039.52V19.1281H1040.52ZM1040.52 1.00009V2.00009H1090.99V1.00009V9.15527e-05H1040.52V1.00009ZM1090.99 1.00009H1089.99V9.96109H1090.99H1091.99V1.00009H1090.99ZM1090.99 9.96109L1090.06 9.59512L1086.45 18.7621L1087.39 19.1281L1088.32 19.4941L1091.92 10.3271L1090.99 9.96109ZM1087.39 19.1281V18.1281H1076.57V19.1281V20.1281H1087.39V19.1281ZM1076.57 19.1281H1075.57V73.1001H1076.57H1077.57V19.1281H1076.57ZM1076.57 73.1001V72.1001H1054.01V73.1001V74.1001H1076.57V73.1001ZM1054.01 73.1001H1055.01V19.1281H1054.01H1053.01V73.1001H1054.01Z" fill="#FFF689" mask="url(#path-1-outside-1_1912_8160)"/>
<defs>
<linearGradient id="paint0_linear_1912_8160" x1="546.881" y1="73.1001" x2="546.881" y2="-3.8999" gradientUnits="userSpaceOnUse">
<stop stop-color="#151317"/>
<stop offset="1" stop-color="#151317" stop-opacity="0"/>
</linearGradient>
</defs>
</svg>
